<?xml version="1.0" encoding="utf-8"?>
<!-- Generator: Adobe Illustrator 24.1.2, SVG Export Plug-In . SVG Version: 6.00 Build 0)  -->
<svg version="1.1" id="Layer_1" xmlns="http://www.w3.org/2000/svg" xmlns:xlink="http://www.w3.org/1999/xlink" x="0px" y="0px"
	 viewBox="0 0 98.3 96.7" enable-background="new 0 0 98.3 96.7" xml:space="preserve">
<path fill-rule="evenodd" clip-rule="evenodd" fill="#1F2020" d="M49.1,66.8h0.2h14.9c2.8-0.1,5.7-1.1,5.7-7.3V48.8H59.7
	c0,0.1,0,0.3,0,0.4c0,6-4.6,10.6-10.4,10.7c-0.1,0-0.1,0-0.2,0c-5.8-0.2-10.4-4.8-10.4-10.7c0-0.1,0-0.3,0-0.4H28.5v10.7
	c0,6.2,2.8,7.2,5.7,7.3H49.1z M59.6,37.1c0,1.8,1.4,3.2,3.2,3.2c1.8,0,3.2-1.4,3.2-3.2s-1.4-3.2-3.2-3.2
	C61.1,33.9,59.6,35.3,59.6,37.1z M1.2,48.5c0,26.5,21.5,48,48,48s48-21.5,48-48c0-26.5-21.5-48-48-48S1.2,22,1.2,48.5z M32.7,69.6
	c-3.2,0-7.3-2.6-7.2-9.8v-23c0.2-0.6-0.5-9.3,8.9-9.4c0,0,7.2,0,14.7,0h0.2c7.5,0,14.7,0,14.7,0c9.4,0.1,8.7,8.8,8.9,9.4v23
	c0.1,7.2-4,9.8-7.2,9.8c-1.9,0.2-14.4,0.1-16.5,0C47,69.6,34.6,69.7,32.7,69.6z"/>
</svg>
