<?xml version="1.0" encoding="utf-8"?>
<!-- Generator: Adobe Illustrator 24.1.2, SVG Export Plug-In . SVG Version: 6.00 Build 0)  -->
<svg version="1.1" id="Layer_1" xmlns="http://www.w3.org/2000/svg" xmlns:xlink="http://www.w3.org/1999/xlink" x="0px" y="0px"
	 viewBox="0 0 97.7 97.2" enable-background="new 0 0 97.7 97.2" xml:space="preserve">
<path fill-rule="evenodd" clip-rule="evenodd" fill="#F37973" d="M56.3,59.5c0.5-0.1,1-0.2,1.5-0.5c1.5-0.8,2.6-2.1,3.4-3.6
	c0.4-0.8,0.2-1.6-0.6-2.2c-0.8-0.6-1.6-1.2-2.4-1.7c-0.8-0.6-1.7-1.1-2.5-1.7c-0.9-0.5-1.9-0.5-2.7,0.1c-0.8,0.6-1.2,1.9-2.3,2
	c-0.7,0.1-1.3-0.2-1.9-0.4c-3.6-1.5-4.1-2.4-5.5-6c-0.2-0.5-0.2-1,0.1-1.4c0.2-0.2,0.4-0.4,0.6-0.6c0.3-0.2,0.5-0.4,0.8-0.6
	c1.1-0.7,1.3-2,0.7-3.1c-1-1.7-2.2-3.3-3.5-4.8c-0.6-0.7-1.4-0.9-2.3-0.5c-1.1,0.5-2.1,1.2-2.9,2.1c-0.8,0.9-1.6,2.2-1.1,3.5
	c0.6,1.4,1.2,2.8,1.8,4.1c1.4,2.8,3.1,5.5,5.3,7.8c3.8,4.1,6.7,4.9,11.9,7C55.2,59.2,55.7,59.3,56.3,59.5L56.3,59.5z M49.2,96.5
	c26.6,0,48.2-21.4,48.2-47.8C97.3,22.4,75.8,1,49.2,1C22.6,1,1,22.4,1,48.7C1,75.1,22.6,96.5,49.2,96.5z M41.6,24.5h15.2
	c10.3,0,16.5,4.8,16.5,14.7v14.3c0,9.8-8.3,13-18.6,13H41.2c0.1,0-9.8,7.1-9.8,7.1s-0.1-11.4,0-11.3c-3.8-3.3-6.3-3.7-6.3-9V40.2
	C25.1,30.4,31.3,24.5,41.6,24.5z"/>
</svg>
