<?xml version="1.0" encoding="utf-8"?>
<!-- Generator: Adobe Illustrator 24.1.2, SVG Export Plug-In . SVG Version: 6.00 Build 0)  -->
<svg version="1.1" id="Layer_1" xmlns="http://www.w3.org/2000/svg" xmlns:xlink="http://www.w3.org/1999/xlink" x="0px" y="0px"
	 viewBox="0 0 95.4 95.7" enable-background="new 0 0 95.4 95.7" xml:space="preserve">
<path fill-rule="evenodd" clip-rule="evenodd" fill="#010101" d="M87.6,47.8c0,21.8-17.8,39.9-40,39.9c-15.9,0-33.5-9.8-38.9-31.2
	c-0.3-1-0.9-6.7-0.9-7.4v-2.6C9.3,21.6,28.6,7.9,47.6,7.9C70.2,7.9,87.6,26,87.6,47.8z M95.4,47.8c0,26.1-21,47.8-47.8,47.8
	c-16.6,0-36.5-9.2-44.9-31.5C2,61.8,0,54.6,0,51.3v-7C3.1,15,25.6,0,47.6,0C74.8,0,95.4,21.6,95.4,47.8z"/>
</svg>
