<?xml version="1.0" encoding="utf-8"?>
<!-- Generator: Adobe Illustrator 24.1.2, SVG Export Plug-In . SVG Version: 6.00 Build 0)  -->
<svg version="1.1" id="Layer_1" xmlns="http://www.w3.org/2000/svg" xmlns:xlink="http://www.w3.org/1999/xlink" x="0px" y="0px"
	 viewBox="0 0 142.5 133.3" enable-background="new 0 0 142.5 133.3" xml:space="preserve">
<path fill-rule="evenodd" clip-rule="evenodd" fill="#F37973" d="M85.3,40c0.8,1.7,2,3.5,2.7,5.4c0.4,0.9,2,3.2,3.4,3.3
	c13.1,1.6,26.4,3.7,39.6,5.6l-5.8,5.5c-7.8,7.4-15.8,14.7-23.4,22.3c-0.4,0.4-0.5,1.2-0.5,1.9l6.9,39.1
	c-11.8-6.1-23.6-12.5-35.4-18.5c-0.4-0.3-1.1-0.3-1.5-0.3c-1.8,0-24.4,12.4-36.8,18.7L41.3,84c0.4-1.7-2.4-3.7-3.8-5.2
	C29,70.6,20.2,62.5,11.6,54.4c13.1-1.9,26.4-3.6,39.6-5.6c2.8-0.4,3.6-4,4.6-6.1c5.3-10.1,10.3-20.6,15.4-31
	C75.8,21,80.5,30.6,85.3,40z M74,2.8c2.1,3.6,3.9,7.4,5.6,11.2c4.6,9.6,9.6,19.1,14.3,28.6c2.8,0.5,5.6,0.9,8.4,1.2
	c2.5,0.4,5.2,0.7,7.7,1.1c1.7,0.3,3.8,0.5,5.7,0.8c4,0.5,8.4,1.2,12.6,1.7c2.1,0.4,4.5,0.4,6.8,0.9c1.3,0.4,6.2-0.1,6.2,3.7
	c0,2.4-2.4,3.2-4.9,6c-1.6,1.6-3.3,3.2-4.9,4.7c-1.6,1.6-3.3,3.2-5,4.8c-6.1,5.8-12.3,11.8-18.5,17.5v0.4l7.7,43.5
	c0.1,2.1-1.6,3.4-3.2,3.4c-1.9,0-8.4-3.9-8.9-4.3c-10.9-5.6-32-16.7-32.4-16.7c-0.3,0-26.3,13.7-39.4,20.5c-0.5,0.3-1.5,0.5-1.9,0.5
	c-1.7,0-3.5-1.3-3-3.4l7.7-43.4c0-0.1,0-0.3-0.1-0.4c-1.7-1.7-3.7-3.7-5.7-5.6c-8.9-8.5-18-16.9-26.8-25.4c-0.5-0.7-0.7-1.7-0.7-2
	c0-4,5.3-3.6,7.3-3.8c13.1-2,26.7-3.6,40.1-5.6c4.7-9.2,9.2-18.7,13.9-28c0.9-2,1.9-4.1,2.9-6c1.2-2.1,1.9-5.1,4.1-6.9
	c0.4-0.4,1.3-0.4,1.6-0.4C72.3,1.3,73.3,1.6,74,2.8z"/>
</svg>
