<?xml version="1.0" encoding="utf-8"?>
<!-- Generator: Adobe Illustrator 24.0.2, SVG Export Plug-In . SVG Version: 6.00 Build 0)  -->
<svg version="1.1" id="Capa_1" xmlns="http://www.w3.org/2000/svg" xmlns:xlink="http://www.w3.org/1999/xlink" x="0px" y="0px"
	 viewBox="0 0 424.7 424.7" enable-background="new 0 0 424.7 424.7" xml:space="preserve">
<g>
	<g>
		<path d="M5.1,200.2c-0.3,0.3-0.6,0.6-0.6,0.6c-0.3,0.3-0.3,0.3-0.6,0.6c-0.3,0.3-0.3,0.6-0.6,0.9c-0.3,0.3-0.3,0.3-0.6,0.6
			c-0.3,0.3-0.3,0.6-0.6,0.9c0,0.3-0.3,0.3-0.3,0.6c-0.3,0.3-0.3,0.6-0.6,1.1c0,0.3-0.3,0.3-0.3,0.6c-0.3,0.3-0.3,0.9-0.6,1.1v0.3
			c-0.3,0.6-0.3,0.9-0.3,1.4v0.3c0,0.6-0.3,0.9-0.3,1.4v0.3c0,0.6,0,1.1,0,1.7s0,1.1,0,1.7v0.3c0,0.6,0,0.9,0.3,1.4v0.3
			c0,0.6,0.3,0.9,0.3,1.4v0.3c0.3,0.3,0.3,0.9,0.6,1.1c0,0.3,0.3,0.3,0.3,0.6c0.3,0.3,0.3,0.9,0.6,1.1c0,0.3,0.3,0.3,0.3,0.6
			c0.3,0.3,0.3,0.6,0.6,0.9c0,0.3,0.3,0.3,0.6,0.6c0.3,0.3,0.3,0.6,0.6,0.9c0.3,0.3,0.3,0.3,0.6,0.6c0.3,0.3,0.6,0.6,0.6,0.6
			l0.3,0.3l157.5,140.5c3.1,2.8,7.4,4.3,11.3,4.3c4.8,0,9.4-2,12.8-5.7c6.2-7.1,5.7-17.9-1.4-24.1L61.2,229.7h346.5
			c9.4,0,17-7.6,17-17s-7.6-17-17-17H61.2L185.3,84.9c7.1-6.2,7.6-17,1.4-24.1s-17-7.7-24.1-1.4L5.4,199.9
			C5.4,200.2,5.1,200.2,5.1,200.2z"/>
	</g>
</g>
</svg>
