<?xml version="1.0" encoding="utf-8"?>
<!-- Generator: Adobe Illustrator 24.1.2, SVG Export Plug-In . SVG Version: 6.00 Build 0)  -->
<svg version="1.1" id="Layer_1" xmlns="http://www.w3.org/2000/svg" xmlns:xlink="http://www.w3.org/1999/xlink" x="0px" y="0px"
	 viewBox="0 0 80.5 124.8" enable-background="new 0 0 80.5 124.8" xml:space="preserve">
<path fill-rule="evenodd" clip-rule="evenodd" fill="#E54344" d="M4.2,43.4c0,24.8,31,39.7,36,75c5-35.3,36-50.2,36-75
	s-16.1-39-36-39S4.2,18.5,4.2,43.4z M26.2,37.9c0-7.5,6-13.5,13.5-13.5s13.5,6,13.5,13.5s-6,13.5-13.5,13.5S26.2,45.3,26.2,37.9z"/>
<path fill-rule="evenodd" clip-rule="evenodd" fill="#FFFFFF" d="M50.1,37.7c0,6.3-5.3,10.5-10.5,10.5c-6.5,0-10.3-5.3-10.3-10.5
	c0-5.8,4.5-10.3,10.3-10.3C46.1,27.5,50.1,32.5,50.1,37.7z M53.1,37.7c0,8-6.3,13.5-13.5,13.5c-7.8,0-13.3-6.3-13.3-13.5
	c0-7.8,6-13.3,13.3-13.3C47.4,24.5,53.1,30.5,53.1,37.7z M76.1,42.7c0,19-16.5,31.5-28.3,52.3c-1.3,2.3-2.8,5.3-3.8,8
	c-1.8,4.3-3,10-4,14.5c-0.3-2.5-1-5.5-1.8-8c-0.8-2.8-1.8-5.5-2.8-7.8c-2.5-6.5-7-13.5-11.8-20C17.1,72.2,4.4,56.7,4.4,46v-6.3
	C5.6,16,22.4,4.5,40.1,4.5C64.1,4.5,76.1,23,76.1,42.7z M79.1,42.7c0,5-0.8,10-3.3,15c-8.5,17.3-27.3,35-31,52.5
	c-0.8,3-1.3,6.3-2.3,9.5c-0.3,0.8-1.8,1.5-2.5,1.5c-0.5,0-2.3-0.8-2.5-1.5c-0.8-2.8-1.3-6-2-8.5c-0.5-2.5-1.5-5.3-2.5-7.5
	c-2-5.3-5.8-11.8-9.3-16.8c-7.8-11.8-19-24-21.8-35.8c-0.3-1.5-0.8-3.8-0.8-4.3v-8.5c3-25.8,19.5-37,38.8-37
	C65.4,1.5,79.1,21,79.1,42.7z"/>
</svg>
