<?xml version="1.0" encoding="utf-8"?>
<!-- Generator: Adobe Illustrator 24.1.2, SVG Export Plug-In . SVG Version: 6.00 Build 0)  -->
<svg version="1.1" id="Capa_1" xmlns="http://www.w3.org/2000/svg" xmlns:xlink="http://www.w3.org/1999/xlink" x="0px" y="0px"
	 viewBox="0 0 487 487" enable-background="new 0 0 487 487" xml:space="preserve">
<g>
	<path d="M482,234.8l-116.5-67.3c-4.8-2.8-10.9-1.1-13.7,3.7c-2.8,4.8-1.1,10.9,3.7,13.7l84.2,48.6H10c-5.5,0-10,4.5-10,10
		c0,5.5,4.5,10,10,10h429.6l-84.1,48.6c-4.8,2.8-6.4,8.9-3.7,13.7c1.9,3.2,5.2,5,8.7,5c1.7,0,3.4-0.4,5-1.3L482,252.2
		c3.1-1.8,5-5.1,5-8.7C487,239.9,485.1,236.6,482,234.8z"/>
</g>
</svg>
