<?xml version="1.0" encoding="utf-8"?>
<!-- Generator: Adobe Illustrator 24.1.2, SVG Export Plug-In . SVG Version: 6.00 Build 0)  -->
<svg version="1.1" id="Layer_1" xmlns="http://www.w3.org/2000/svg" xmlns:xlink="http://www.w3.org/1999/xlink" x="0px" y="0px"
	 viewBox="0 0 473.3 204" enable-background="new 0 0 473.3 204" xml:space="preserve">
<path fill-rule="evenodd" clip-rule="evenodd" fill="#1F2020" d="M3,162.5c0-0.8-0.7-1.5-1.5-1.5S0,161.6,0,162.5s0.7,1.5,1.5,1.5
	S3,163.3,3,162.5z M13,162.5c0-0.8-0.7-1.5-1.5-1.5s-1.5,0.7-1.5,1.5s0.7,1.5,1.5,1.5S13,163.3,13,162.5z M23,162.5
	c0-0.8-0.7-1.5-1.5-1.5s-1.5,0.7-1.5,1.5s0.7,1.5,1.5,1.5S23,163.3,23,162.5z M33,162.5c0-0.8-0.7-1.5-1.5-1.5s-1.5,0.7-1.5,1.5
	s0.7,1.5,1.5,1.5C32.3,164,33,163.3,33,162.5z M43,162.5c0-0.8-0.7-1.5-1.5-1.5s-1.5,0.7-1.5,1.5s0.7,1.5,1.5,1.5S43,163.3,43,162.5
	z M53,162.5c0-0.8-0.7-1.5-1.5-1.5s-1.5,0.7-1.5,1.5s0.7,1.5,1.5,1.5S53,163.3,53,162.5z M63,162.5c0-0.8-0.7-1.5-1.5-1.5
	s-1.5,0.7-1.5,1.5s0.7,1.5,1.5,1.5S63,163.3,63,162.5z M73,162.5c0-0.8-0.7-1.5-1.5-1.5s-1.5,0.7-1.5,1.5s0.7,1.5,1.5,1.5
	S73,163.3,73,162.5z M83,162.5c0-0.8-0.7-1.5-1.5-1.5s-1.5,0.7-1.5,1.5s0.7,1.5,1.5,1.5S83,163.3,83,162.5z M93,162.5
	c0-0.8-0.7-1.5-1.5-1.5s-1.5,0.7-1.5,1.5s0.7,1.5,1.5,1.5S93,163.3,93,162.5z M103,162.5c0-0.8-0.7-1.5-1.5-1.5s-1.5,0.7-1.5,1.5
	s0.7,1.5,1.5,1.5S103,163.3,103,162.5z M113,162.5c0-0.8-0.7-1.5-1.5-1.5s-1.5,0.7-1.5,1.5s0.7,1.5,1.5,1.5S113,163.3,113,162.5z
	 M3,172.5c0-0.8-0.7-1.5-1.5-1.5S0,171.6,0,172.5s0.7,1.5,1.5,1.5S3,173.3,3,172.5z M13,172.5c0-0.8-0.7-1.5-1.5-1.5
	s-1.5,0.7-1.5,1.5s0.7,1.5,1.5,1.5S13,173.3,13,172.5z M23,172.5c0-0.8-0.7-1.5-1.5-1.5s-1.5,0.7-1.5,1.5s0.7,1.5,1.5,1.5
	S23,173.3,23,172.5z M33,172.5c0-0.8-0.7-1.5-1.5-1.5s-1.5,0.7-1.5,1.5s0.7,1.5,1.5,1.5C32.3,174,33,173.3,33,172.5z M43,172.5
	c0-0.8-0.7-1.5-1.5-1.5s-1.5,0.7-1.5,1.5s0.7,1.5,1.5,1.5S43,173.3,43,172.5z M53,172.5c0-0.8-0.7-1.5-1.5-1.5s-1.5,0.7-1.5,1.5
	s0.7,1.5,1.5,1.5S53,173.3,53,172.5z M63,172.5c0-0.8-0.7-1.5-1.5-1.5s-1.5,0.7-1.5,1.5s0.7,1.5,1.5,1.5S63,173.3,63,172.5z
	 M73,172.5c0-0.8-0.7-1.5-1.5-1.5s-1.5,0.7-1.5,1.5s0.7,1.5,1.5,1.5S73,173.3,73,172.5z M83,172.5c0-0.8-0.7-1.5-1.5-1.5
	s-1.5,0.7-1.5,1.5s0.7,1.5,1.5,1.5S83,173.3,83,172.5z M93,172.5c0-0.8-0.7-1.5-1.5-1.5s-1.5,0.7-1.5,1.5s0.7,1.5,1.5,1.5
	S93,173.3,93,172.5z M103,172.5c0-0.8-0.7-1.5-1.5-1.5s-1.5,0.7-1.5,1.5s0.7,1.5,1.5,1.5S103,173.3,103,172.5z M113,172.5
	c0-0.8-0.7-1.5-1.5-1.5s-1.5,0.7-1.5,1.5s0.7,1.5,1.5,1.5S113,173.3,113,172.5z M3,182.5c0-0.8-0.7-1.5-1.5-1.5S0,181.6,0,182.5
	s0.7,1.5,1.5,1.5S3,183.3,3,182.5z M13,182.5c0-0.8-0.7-1.5-1.5-1.5s-1.5,0.7-1.5,1.5s0.7,1.5,1.5,1.5S13,183.3,13,182.5z M23,182.5
	c0-0.8-0.7-1.5-1.5-1.5s-1.5,0.7-1.5,1.5s0.7,1.5,1.5,1.5S23,183.3,23,182.5z M33,182.5c0-0.8-0.7-1.5-1.5-1.5s-1.5,0.7-1.5,1.5
	s0.7,1.5,1.5,1.5C32.3,184,33,183.3,33,182.5z M43,182.5c0-0.8-0.7-1.5-1.5-1.5s-1.5,0.7-1.5,1.5s0.7,1.5,1.5,1.5S43,183.3,43,182.5
	z M53,182.5c0-0.8-0.7-1.5-1.5-1.5s-1.5,0.7-1.5,1.5s0.7,1.5,1.5,1.5S53,183.3,53,182.5z M63,182.5c0-0.8-0.7-1.5-1.5-1.5
	s-1.5,0.7-1.5,1.5s0.7,1.5,1.5,1.5S63,183.3,63,182.5z M73,182.5c0-0.8-0.7-1.5-1.5-1.5s-1.5,0.7-1.5,1.5s0.7,1.5,1.5,1.5
	S73,183.3,73,182.5z M83,182.5c0-0.8-0.7-1.5-1.5-1.5s-1.5,0.7-1.5,1.5s0.7,1.5,1.5,1.5S83,183.3,83,182.5z M93,182.5
	c0-0.8-0.7-1.5-1.5-1.5s-1.5,0.7-1.5,1.5s0.7,1.5,1.5,1.5S93,183.3,93,182.5z M103,182.5c0-0.8-0.7-1.5-1.5-1.5s-1.5,0.7-1.5,1.5
	s0.7,1.5,1.5,1.5S103,183.3,103,182.5z M113,182.5c0-0.8-0.7-1.5-1.5-1.5s-1.5,0.7-1.5,1.5s0.7,1.5,1.5,1.5S113,183.3,113,182.5z
	 M3,192.5c0-0.8-0.7-1.5-1.5-1.5S0,191.6,0,192.5s0.7,1.5,1.5,1.5S3,193.3,3,192.5z M13,192.5c0-0.8-0.7-1.5-1.5-1.5
	s-1.5,0.7-1.5,1.5s0.7,1.5,1.5,1.5S13,193.3,13,192.5z M23,192.5c0-0.8-0.7-1.5-1.5-1.5s-1.5,0.7-1.5,1.5s0.7,1.5,1.5,1.5
	S23,193.3,23,192.5z M33,192.5c0-0.8-0.7-1.5-1.5-1.5s-1.5,0.7-1.5,1.5s0.7,1.5,1.5,1.5C32.3,194,33,193.3,33,192.5z M43,192.5
	c0-0.8-0.7-1.5-1.5-1.5s-1.5,0.7-1.5,1.5s0.7,1.5,1.5,1.5S43,193.3,43,192.5z M53,192.5c0-0.8-0.7-1.5-1.5-1.5s-1.5,0.7-1.5,1.5
	s0.7,1.5,1.5,1.5S53,193.3,53,192.5z M63,192.5c0-0.8-0.7-1.5-1.5-1.5s-1.5,0.7-1.5,1.5s0.7,1.5,1.5,1.5S63,193.3,63,192.5z
	 M73,192.5c0-0.8-0.7-1.5-1.5-1.5s-1.5,0.7-1.5,1.5s0.7,1.5,1.5,1.5S73,193.3,73,192.5z M83,192.5c0-0.8-0.7-1.5-1.5-1.5
	s-1.5,0.7-1.5,1.5s0.7,1.5,1.5,1.5S83,193.3,83,192.5z M93,192.5c0-0.8-0.7-1.5-1.5-1.5s-1.5,0.7-1.5,1.5s0.7,1.5,1.5,1.5
	S93,193.3,93,192.5z M103,192.5c0-0.8-0.7-1.5-1.5-1.5s-1.5,0.7-1.5,1.5s0.7,1.5,1.5,1.5S103,193.3,103,192.5z M113,192.5
	c0-0.8-0.7-1.5-1.5-1.5s-1.5,0.7-1.5,1.5s0.7,1.5,1.5,1.5S113,193.3,113,192.5z M3,202.5c0-0.8-0.7-1.5-1.5-1.5S0,201.6,0,202.5
	s0.7,1.5,1.5,1.5S3,203.3,3,202.5z M13,202.5c0-0.8-0.7-1.5-1.5-1.5s-1.5,0.7-1.5,1.5s0.7,1.5,1.5,1.5S13,203.3,13,202.5z M23,202.5
	c0-0.8-0.7-1.5-1.5-1.5s-1.5,0.7-1.5,1.5s0.7,1.5,1.5,1.5S23,203.3,23,202.5z M33,202.5c0-0.8-0.7-1.5-1.5-1.5s-1.5,0.7-1.5,1.5
	s0.7,1.5,1.5,1.5C32.3,204,33,203.3,33,202.5z M43,202.5c0-0.8-0.7-1.5-1.5-1.5s-1.5,0.7-1.5,1.5s0.7,1.5,1.5,1.5S43,203.3,43,202.5
	z M53,202.5c0-0.8-0.7-1.5-1.5-1.5s-1.5,0.7-1.5,1.5s0.7,1.5,1.5,1.5S53,203.3,53,202.5z M63,202.5c0-0.8-0.7-1.5-1.5-1.5
	s-1.5,0.7-1.5,1.5s0.7,1.5,1.5,1.5S63,203.3,63,202.5z M73,202.5c0-0.8-0.7-1.5-1.5-1.5s-1.5,0.7-1.5,1.5s0.7,1.5,1.5,1.5
	S73,203.3,73,202.5z M83,202.5c0-0.8-0.7-1.5-1.5-1.5s-1.5,0.7-1.5,1.5s0.7,1.5,1.5,1.5S83,203.3,83,202.5z M93,202.5
	c0-0.8-0.7-1.5-1.5-1.5s-1.5,0.7-1.5,1.5s0.7,1.5,1.5,1.5S93,203.3,93,202.5z M103,202.5c0-0.8-0.7-1.5-1.5-1.5s-1.5,0.7-1.5,1.5
	s0.7,1.5,1.5,1.5S103,203.3,103,202.5z M113,202.5c0-0.8-0.7-1.5-1.5-1.5s-1.5,0.7-1.5,1.5s0.7,1.5,1.5,1.5S113,203.3,113,202.5z
	 M123,162.5c0-0.8-0.7-1.5-1.5-1.5s-1.5,0.7-1.5,1.5s0.7,1.5,1.5,1.5S123,163.3,123,162.5z M133,162.5c0-0.8-0.7-1.5-1.5-1.5
	s-1.5,0.7-1.5,1.5s0.7,1.5,1.5,1.5S133,163.3,133,162.5z M143,162.5c0-0.8-0.7-1.5-1.5-1.5s-1.5,0.7-1.5,1.5s0.7,1.5,1.5,1.5
	S143,163.3,143,162.5z M153,162.5c0-0.8-0.7-1.5-1.5-1.5s-1.5,0.7-1.5,1.5s0.7,1.5,1.5,1.5S153,163.3,153,162.5z M163,162.5
	c0-0.8-0.7-1.5-1.5-1.5s-1.5,0.7-1.5,1.5s0.7,1.5,1.5,1.5S163,163.3,163,162.5z M173,162.5c0-0.8-0.7-1.5-1.5-1.5s-1.5,0.7-1.5,1.5
	s0.7,1.5,1.5,1.5S173,163.3,173,162.5z M183,162.5c0-0.8-0.7-1.5-1.5-1.5s-1.5,0.7-1.5,1.5s0.7,1.5,1.5,1.5S183,163.3,183,162.5z
	 M193,162.5c0-0.8-0.7-1.5-1.5-1.5s-1.5,0.7-1.5,1.5s0.7,1.5,1.5,1.5S193,163.3,193,162.5z M203,162.5c0-0.8-0.7-1.5-1.5-1.5
	s-1.5,0.7-1.5,1.5s0.7,1.5,1.5,1.5S203,163.3,203,162.5z M213,162.5c0-0.8-0.7-1.5-1.5-1.5s-1.5,0.7-1.5,1.5s0.7,1.5,1.5,1.5
	S213,163.3,213,162.5z M223,162.5c0-0.8-0.7-1.5-1.5-1.5s-1.5,0.7-1.5,1.5s0.7,1.5,1.5,1.5S223,163.3,223,162.5z M233,162.5
	c0-0.8-0.7-1.5-1.5-1.5s-1.5,0.7-1.5,1.5s0.7,1.5,1.5,1.5S233,163.3,233,162.5z M123,172.5c0-0.8-0.7-1.5-1.5-1.5s-1.5,0.7-1.5,1.5
	s0.7,1.5,1.5,1.5S123,173.3,123,172.5z M133,172.5c0-0.8-0.7-1.5-1.5-1.5s-1.5,0.7-1.5,1.5s0.7,1.5,1.5,1.5S133,173.3,133,172.5z
	 M143,172.5c0-0.8-0.7-1.5-1.5-1.5s-1.5,0.7-1.5,1.5s0.7,1.5,1.5,1.5S143,173.3,143,172.5z M153,172.5c0-0.8-0.7-1.5-1.5-1.5
	s-1.5,0.7-1.5,1.5s0.7,1.5,1.5,1.5S153,173.3,153,172.5z M163,172.5c0-0.8-0.7-1.5-1.5-1.5s-1.5,0.7-1.5,1.5s0.7,1.5,1.5,1.5
	S163,173.3,163,172.5z M173,172.5c0-0.8-0.7-1.5-1.5-1.5s-1.5,0.7-1.5,1.5s0.7,1.5,1.5,1.5S173,173.3,173,172.5z M183,172.5
	c0-0.8-0.7-1.5-1.5-1.5s-1.5,0.7-1.5,1.5s0.7,1.5,1.5,1.5S183,173.3,183,172.5z M193,172.5c0-0.8-0.7-1.5-1.5-1.5s-1.5,0.7-1.5,1.5
	s0.7,1.5,1.5,1.5S193,173.3,193,172.5z M203,172.5c0-0.8-0.7-1.5-1.5-1.5s-1.5,0.7-1.5,1.5s0.7,1.5,1.5,1.5S203,173.3,203,172.5z
	 M213,172.5c0-0.8-0.7-1.5-1.5-1.5s-1.5,0.7-1.5,1.5s0.7,1.5,1.5,1.5S213,173.3,213,172.5z M223,172.5c0-0.8-0.7-1.5-1.5-1.5
	s-1.5,0.7-1.5,1.5s0.7,1.5,1.5,1.5S223,173.3,223,172.5z M233,172.5c0-0.8-0.7-1.5-1.5-1.5s-1.5,0.7-1.5,1.5s0.7,1.5,1.5,1.5
	S233,173.3,233,172.5z M123,182.5c0-0.8-0.7-1.5-1.5-1.5s-1.5,0.7-1.5,1.5s0.7,1.5,1.5,1.5S123,183.3,123,182.5z M133,182.5
	c0-0.8-0.7-1.5-1.5-1.5s-1.5,0.7-1.5,1.5s0.7,1.5,1.5,1.5S133,183.3,133,182.5z M143,182.5c0-0.8-0.7-1.5-1.5-1.5s-1.5,0.7-1.5,1.5
	s0.7,1.5,1.5,1.5S143,183.3,143,182.5z M153,182.5c0-0.8-0.7-1.5-1.5-1.5s-1.5,0.7-1.5,1.5s0.7,1.5,1.5,1.5S153,183.3,153,182.5z
	 M163,182.5c0-0.8-0.7-1.5-1.5-1.5s-1.5,0.7-1.5,1.5s0.7,1.5,1.5,1.5S163,183.3,163,182.5z M173,182.5c0-0.8-0.7-1.5-1.5-1.5
	s-1.5,0.7-1.5,1.5s0.7,1.5,1.5,1.5S173,183.3,173,182.5z M183,182.5c0-0.8-0.7-1.5-1.5-1.5s-1.5,0.7-1.5,1.5s0.7,1.5,1.5,1.5
	S183,183.3,183,182.5z M193,182.5c0-0.8-0.7-1.5-1.5-1.5s-1.5,0.7-1.5,1.5s0.7,1.5,1.5,1.5S193,183.3,193,182.5z M203,182.5
	c0-0.8-0.7-1.5-1.5-1.5s-1.5,0.7-1.5,1.5s0.7,1.5,1.5,1.5S203,183.3,203,182.5z M213,182.5c0-0.8-0.7-1.5-1.5-1.5s-1.5,0.7-1.5,1.5
	s0.7,1.5,1.5,1.5S213,183.3,213,182.5z M223,182.5c0-0.8-0.7-1.5-1.5-1.5s-1.5,0.7-1.5,1.5s0.7,1.5,1.5,1.5S223,183.3,223,182.5z
	 M233,182.5c0-0.8-0.7-1.5-1.5-1.5s-1.5,0.7-1.5,1.5s0.7,1.5,1.5,1.5S233,183.3,233,182.5z M123,192.5c0-0.8-0.7-1.5-1.5-1.5
	s-1.5,0.7-1.5,1.5s0.7,1.5,1.5,1.5S123,193.3,123,192.5z M133,192.5c0-0.8-0.7-1.5-1.5-1.5s-1.5,0.7-1.5,1.5s0.7,1.5,1.5,1.5
	S133,193.3,133,192.5z M143,192.5c0-0.8-0.7-1.5-1.5-1.5s-1.5,0.7-1.5,1.5s0.7,1.5,1.5,1.5S143,193.3,143,192.5z M153,192.5
	c0-0.8-0.7-1.5-1.5-1.5s-1.5,0.7-1.5,1.5s0.7,1.5,1.5,1.5S153,193.3,153,192.5z M163,192.5c0-0.8-0.7-1.5-1.5-1.5s-1.5,0.7-1.5,1.5
	s0.7,1.5,1.5,1.5S163,193.3,163,192.5z M173,192.5c0-0.8-0.7-1.5-1.5-1.5s-1.5,0.7-1.5,1.5s0.7,1.5,1.5,1.5S173,193.3,173,192.5z
	 M183,192.5c0-0.8-0.7-1.5-1.5-1.5s-1.5,0.7-1.5,1.5s0.7,1.5,1.5,1.5S183,193.3,183,192.5z M193,192.5c0-0.8-0.7-1.5-1.5-1.5
	s-1.5,0.7-1.5,1.5s0.7,1.5,1.5,1.5S193,193.3,193,192.5z M203,192.5c0-0.8-0.7-1.5-1.5-1.5s-1.5,0.7-1.5,1.5s0.7,1.5,1.5,1.5
	S203,193.3,203,192.5z M213,192.5c0-0.8-0.7-1.5-1.5-1.5s-1.5,0.7-1.5,1.5s0.7,1.5,1.5,1.5S213,193.3,213,192.5z M223,192.5
	c0-0.8-0.7-1.5-1.5-1.5s-1.5,0.7-1.5,1.5s0.7,1.5,1.5,1.5S223,193.3,223,192.5z M233,192.5c0-0.8-0.7-1.5-1.5-1.5s-1.5,0.7-1.5,1.5
	s0.7,1.5,1.5,1.5S233,193.3,233,192.5z M123,202.5c0-0.8-0.7-1.5-1.5-1.5s-1.5,0.7-1.5,1.5s0.7,1.5,1.5,1.5S123,203.3,123,202.5z
	 M133,202.5c0-0.8-0.7-1.5-1.5-1.5s-1.5,0.7-1.5,1.5s0.7,1.5,1.5,1.5S133,203.3,133,202.5z M143,202.5c0-0.8-0.7-1.5-1.5-1.5
	s-1.5,0.7-1.5,1.5s0.7,1.5,1.5,1.5S143,203.3,143,202.5z M153,202.5c0-0.8-0.7-1.5-1.5-1.5s-1.5,0.7-1.5,1.5s0.7,1.5,1.5,1.5
	S153,203.3,153,202.5z M163,202.5c0-0.8-0.7-1.5-1.5-1.5s-1.5,0.7-1.5,1.5s0.7,1.5,1.5,1.5S163,203.3,163,202.5z M173,202.5
	c0-0.8-0.7-1.5-1.5-1.5s-1.5,0.7-1.5,1.5s0.7,1.5,1.5,1.5S173,203.3,173,202.5z M183,202.5c0-0.8-0.7-1.5-1.5-1.5s-1.5,0.7-1.5,1.5
	s0.7,1.5,1.5,1.5S183,203.3,183,202.5z M193,202.5c0-0.8-0.7-1.5-1.5-1.5s-1.5,0.7-1.5,1.5s0.7,1.5,1.5,1.5S193,203.3,193,202.5z
	 M203,202.5c0-0.8-0.7-1.5-1.5-1.5s-1.5,0.7-1.5,1.5s0.7,1.5,1.5,1.5S203,203.3,203,202.5z M213,202.5c0-0.8-0.7-1.5-1.5-1.5
	s-1.5,0.7-1.5,1.5s0.7,1.5,1.5,1.5S213,203.3,213,202.5z M223,202.5c0-0.8-0.7-1.5-1.5-1.5s-1.5,0.7-1.5,1.5s0.7,1.5,1.5,1.5
	S223,203.3,223,202.5z M233,202.5c0-0.8-0.7-1.5-1.5-1.5s-1.5,0.7-1.5,1.5s0.7,1.5,1.5,1.5S233,203.3,233,202.5z M243,162.5
	c0-0.8-0.7-1.5-1.5-1.5s-1.5,0.7-1.5,1.5s0.7,1.5,1.5,1.5S243,163.3,243,162.5z M253,162.5c0-0.8-0.7-1.5-1.5-1.5s-1.5,0.7-1.5,1.5
	s0.7,1.5,1.5,1.5S253,163.3,253,162.5z M263,162.5c0-0.8-0.7-1.5-1.5-1.5s-1.5,0.7-1.5,1.5s0.7,1.5,1.5,1.5S263,163.3,263,162.5z
	 M273,162.5c0-0.8-0.7-1.5-1.5-1.5s-1.5,0.7-1.5,1.5s0.7,1.5,1.5,1.5S273,163.3,273,162.5z M283,162.5c0-0.8-0.7-1.5-1.5-1.5
	s-1.5,0.7-1.5,1.5s0.7,1.5,1.5,1.5S283,163.3,283,162.5z M293,162.5c0-0.8-0.7-1.5-1.5-1.5s-1.5,0.7-1.5,1.5s0.7,1.5,1.5,1.5
	S293,163.3,293,162.5z M303,162.5c0-0.8-0.7-1.5-1.5-1.5s-1.5,0.7-1.5,1.5s0.7,1.5,1.5,1.5S303,163.3,303,162.5z M313,162.5
	c0-0.8-0.7-1.5-1.5-1.5s-1.5,0.7-1.5,1.5s0.7,1.5,1.5,1.5S313,163.3,313,162.5z M323,162.5c0-0.8-0.7-1.5-1.5-1.5s-1.5,0.7-1.5,1.5
	s0.7,1.5,1.5,1.5S323,163.3,323,162.5z M333,162.5c0-0.8-0.7-1.5-1.5-1.5s-1.5,0.7-1.5,1.5s0.7,1.5,1.5,1.5S333,163.3,333,162.5z
	 M343,162.5c0-0.8-0.7-1.5-1.5-1.5s-1.5,0.7-1.5,1.5s0.7,1.5,1.5,1.5S343,163.3,343,162.5z M353,162.5c0-0.8-0.7-1.5-1.5-1.5
	s-1.5,0.7-1.5,1.5s0.7,1.5,1.5,1.5S353,163.3,353,162.5z M243,172.5c0-0.8-0.7-1.5-1.5-1.5s-1.5,0.7-1.5,1.5s0.7,1.5,1.5,1.5
	S243,173.3,243,172.5z M253,172.5c0-0.8-0.7-1.5-1.5-1.5s-1.5,0.7-1.5,1.5s0.7,1.5,1.5,1.5S253,173.3,253,172.5z M263,172.5
	c0-0.8-0.7-1.5-1.5-1.5s-1.5,0.7-1.5,1.5s0.7,1.5,1.5,1.5S263,173.3,263,172.5z M273,172.5c0-0.8-0.7-1.5-1.5-1.5s-1.5,0.7-1.5,1.5
	s0.7,1.5,1.5,1.5S273,173.3,273,172.5z M283,172.5c0-0.8-0.7-1.5-1.5-1.5s-1.5,0.7-1.5,1.5s0.7,1.5,1.5,1.5S283,173.3,283,172.5z
	 M293,172.5c0-0.8-0.7-1.5-1.5-1.5s-1.5,0.7-1.5,1.5s0.7,1.5,1.5,1.5S293,173.3,293,172.5z M303,172.5c0-0.8-0.7-1.5-1.5-1.5
	s-1.5,0.7-1.5,1.5s0.7,1.5,1.5,1.5S303,173.3,303,172.5z M313,172.5c0-0.8-0.7-1.5-1.5-1.5s-1.5,0.7-1.5,1.5s0.7,1.5,1.5,1.5
	S313,173.3,313,172.5z M323,172.5c0-0.8-0.7-1.5-1.5-1.5s-1.5,0.7-1.5,1.5s0.7,1.5,1.5,1.5S323,173.3,323,172.5z M333,172.5
	c0-0.8-0.7-1.5-1.5-1.5s-1.5,0.7-1.5,1.5s0.7,1.5,1.5,1.5S333,173.3,333,172.5z M343,172.5c0-0.8-0.7-1.5-1.5-1.5s-1.5,0.7-1.5,1.5
	s0.7,1.5,1.5,1.5S343,173.3,343,172.5z M353,172.5c0-0.8-0.7-1.5-1.5-1.5s-1.5,0.7-1.5,1.5s0.7,1.5,1.5,1.5S353,173.3,353,172.5z
	 M243,182.5c0-0.8-0.7-1.5-1.5-1.5s-1.5,0.7-1.5,1.5s0.7,1.5,1.5,1.5S243,183.3,243,182.5z M253,182.5c0-0.8-0.7-1.5-1.5-1.5
	s-1.5,0.7-1.5,1.5s0.7,1.5,1.5,1.5S253,183.3,253,182.5z M263,182.5c0-0.8-0.7-1.5-1.5-1.5s-1.5,0.7-1.5,1.5s0.7,1.5,1.5,1.5
	S263,183.3,263,182.5z M273,182.5c0-0.8-0.7-1.5-1.5-1.5s-1.5,0.7-1.5,1.5s0.7,1.5,1.5,1.5S273,183.3,273,182.5z M283,182.5
	c0-0.8-0.7-1.5-1.5-1.5s-1.5,0.7-1.5,1.5s0.7,1.5,1.5,1.5S283,183.3,283,182.5z M293,182.5c0-0.8-0.7-1.5-1.5-1.5s-1.5,0.7-1.5,1.5
	s0.7,1.5,1.5,1.5S293,183.3,293,182.5z M303,182.5c0-0.8-0.7-1.5-1.5-1.5s-1.5,0.7-1.5,1.5s0.7,1.5,1.5,1.5S303,183.3,303,182.5z
	 M313,182.5c0-0.8-0.7-1.5-1.5-1.5s-1.5,0.7-1.5,1.5s0.7,1.5,1.5,1.5S313,183.3,313,182.5z M323,182.5c0-0.8-0.7-1.5-1.5-1.5
	s-1.5,0.7-1.5,1.5s0.7,1.5,1.5,1.5S323,183.3,323,182.5z M333,182.5c0-0.8-0.7-1.5-1.5-1.5s-1.5,0.7-1.5,1.5s0.7,1.5,1.5,1.5
	S333,183.3,333,182.5z M343,182.5c0-0.8-0.7-1.5-1.5-1.5s-1.5,0.7-1.5,1.5s0.7,1.5,1.5,1.5S343,183.3,343,182.5z M353,182.5
	c0-0.8-0.7-1.5-1.5-1.5s-1.5,0.7-1.5,1.5s0.7,1.5,1.5,1.5S353,183.3,353,182.5z M243,192.5c0-0.8-0.7-1.5-1.5-1.5s-1.5,0.7-1.5,1.5
	s0.7,1.5,1.5,1.5S243,193.3,243,192.5z M253,192.5c0-0.8-0.7-1.5-1.5-1.5s-1.5,0.7-1.5,1.5s0.7,1.5,1.5,1.5S253,193.3,253,192.5z
	 M263,192.5c0-0.8-0.7-1.5-1.5-1.5s-1.5,0.7-1.5,1.5s0.7,1.5,1.5,1.5S263,193.3,263,192.5z M273,192.5c0-0.8-0.7-1.5-1.5-1.5
	s-1.5,0.7-1.5,1.5s0.7,1.5,1.5,1.5S273,193.3,273,192.5z M283,192.5c0-0.8-0.7-1.5-1.5-1.5s-1.5,0.7-1.5,1.5s0.7,1.5,1.5,1.5
	S283,193.3,283,192.5z M293,192.5c0-0.8-0.7-1.5-1.5-1.5s-1.5,0.7-1.5,1.5s0.7,1.5,1.5,1.5S293,193.3,293,192.5z M303,192.5
	c0-0.8-0.7-1.5-1.5-1.5s-1.5,0.7-1.5,1.5s0.7,1.5,1.5,1.5S303,193.3,303,192.5z M313,192.5c0-0.8-0.7-1.5-1.5-1.5s-1.5,0.7-1.5,1.5
	s0.7,1.5,1.5,1.5S313,193.3,313,192.5z M323,192.5c0-0.8-0.7-1.5-1.5-1.5s-1.5,0.7-1.5,1.5s0.7,1.5,1.5,1.5S323,193.3,323,192.5z
	 M333,192.5c0-0.8-0.7-1.5-1.5-1.5s-1.5,0.7-1.5,1.5s0.7,1.5,1.5,1.5S333,193.3,333,192.5z M343,192.5c0-0.8-0.7-1.5-1.5-1.5
	s-1.5,0.7-1.5,1.5s0.7,1.5,1.5,1.5S343,193.3,343,192.5z M353,192.5c0-0.8-0.7-1.5-1.5-1.5s-1.5,0.7-1.5,1.5s0.7,1.5,1.5,1.5
	S353,193.3,353,192.5z M243,202.5c0-0.8-0.7-1.5-1.5-1.5s-1.5,0.7-1.5,1.5s0.7,1.5,1.5,1.5S243,203.3,243,202.5z M253,202.5
	c0-0.8-0.7-1.5-1.5-1.5s-1.5,0.7-1.5,1.5s0.7,1.5,1.5,1.5S253,203.3,253,202.5z M263,202.5c0-0.8-0.7-1.5-1.5-1.5s-1.5,0.7-1.5,1.5
	s0.7,1.5,1.5,1.5S263,203.3,263,202.5z M273,202.5c0-0.8-0.7-1.5-1.5-1.5s-1.5,0.7-1.5,1.5s0.7,1.5,1.5,1.5S273,203.3,273,202.5z
	 M283,202.5c0-0.8-0.7-1.5-1.5-1.5s-1.5,0.7-1.5,1.5s0.7,1.5,1.5,1.5S283,203.3,283,202.5z M293,202.5c0-0.8-0.7-1.5-1.5-1.5
	s-1.5,0.7-1.5,1.5s0.7,1.5,1.5,1.5S293,203.3,293,202.5z M303,202.5c0-0.8-0.7-1.5-1.5-1.5s-1.5,0.7-1.5,1.5s0.7,1.5,1.5,1.5
	S303,203.3,303,202.5z M313,202.5c0-0.8-0.7-1.5-1.5-1.5s-1.5,0.7-1.5,1.5s0.7,1.5,1.5,1.5S313,203.3,313,202.5z M323,202.5
	c0-0.8-0.7-1.5-1.5-1.5s-1.5,0.7-1.5,1.5s0.7,1.5,1.5,1.5S323,203.3,323,202.5z M333,202.5c0-0.8-0.7-1.5-1.5-1.5s-1.5,0.7-1.5,1.5
	s0.7,1.5,1.5,1.5S333,203.3,333,202.5z M343,202.5c0-0.8-0.7-1.5-1.5-1.5s-1.5,0.7-1.5,1.5s0.7,1.5,1.5,1.5S343,203.3,343,202.5z
	 M353,202.5c0-0.8-0.7-1.5-1.5-1.5s-1.5,0.7-1.5,1.5s0.7,1.5,1.5,1.5S353,203.3,353,202.5z M363,162.5c0-0.8-0.7-1.5-1.5-1.5
	s-1.5,0.7-1.5,1.5s0.7,1.5,1.5,1.5S363,163.3,363,162.5z M373,162.5c0-0.8-0.7-1.5-1.5-1.5s-1.5,0.7-1.5,1.5s0.7,1.5,1.5,1.5
	S373,163.3,373,162.5z M383,162.5c0-0.8-0.7-1.5-1.5-1.5s-1.5,0.7-1.5,1.5s0.7,1.5,1.5,1.5S383,163.3,383,162.5z M393,162.5
	c0-0.8-0.7-1.5-1.5-1.5s-1.5,0.7-1.5,1.5s0.7,1.5,1.5,1.5S393,163.3,393,162.5z M403,162.5c0-0.8-0.7-1.5-1.5-1.5s-1.5,0.7-1.5,1.5
	s0.7,1.5,1.5,1.5S403,163.3,403,162.5z M413,162.5c0-0.8-0.7-1.5-1.5-1.5s-1.5,0.7-1.5,1.5s0.7,1.5,1.5,1.5S413,163.3,413,162.5z
	 M423,162.5c0-0.8-0.7-1.5-1.5-1.5s-1.5,0.7-1.5,1.5s0.7,1.5,1.5,1.5S423,163.3,423,162.5z M433,162.5c0-0.8-0.7-1.5-1.5-1.5
	s-1.5,0.7-1.5,1.5s0.7,1.5,1.5,1.5S433,163.3,433,162.5z M443,162.5c0-0.8-0.7-1.5-1.5-1.5s-1.5,0.7-1.5,1.5s0.7,1.5,1.5,1.5
	S443,163.3,443,162.5z M453,162.5c0-0.8-0.7-1.5-1.5-1.5s-1.5,0.7-1.5,1.5s0.7,1.5,1.5,1.5S453,163.3,453,162.5z M463,162.5
	c0-0.8-0.7-1.5-1.5-1.5s-1.5,0.7-1.5,1.5s0.7,1.5,1.5,1.5S463,163.3,463,162.5z M473,162.5c0-0.8-0.7-1.5-1.5-1.5s-1.5,0.7-1.5,1.5
	s0.7,1.5,1.5,1.5S473,163.3,473,162.5z M363,172.5c0-0.8-0.7-1.5-1.5-1.5s-1.5,0.7-1.5,1.5s0.7,1.5,1.5,1.5S363,173.3,363,172.5z
	 M373,172.5c0-0.8-0.7-1.5-1.5-1.5s-1.5,0.7-1.5,1.5s0.7,1.5,1.5,1.5S373,173.3,373,172.5z M383,172.5c0-0.8-0.7-1.5-1.5-1.5
	s-1.5,0.7-1.5,1.5s0.7,1.5,1.5,1.5S383,173.3,383,172.5z M393,172.5c0-0.8-0.7-1.5-1.5-1.5s-1.5,0.7-1.5,1.5s0.7,1.5,1.5,1.5
	S393,173.3,393,172.5z M403,172.5c0-0.8-0.7-1.5-1.5-1.5s-1.5,0.7-1.5,1.5s0.7,1.5,1.5,1.5S403,173.3,403,172.5z M413,172.5
	c0-0.8-0.7-1.5-1.5-1.5s-1.5,0.7-1.5,1.5s0.7,1.5,1.5,1.5S413,173.3,413,172.5z M423,172.5c0-0.8-0.7-1.5-1.5-1.5s-1.5,0.7-1.5,1.5
	s0.7,1.5,1.5,1.5S423,173.3,423,172.5z M433,172.5c0-0.8-0.7-1.5-1.5-1.5s-1.5,0.7-1.5,1.5s0.7,1.5,1.5,1.5S433,173.3,433,172.5z
	 M443,172.5c0-0.8-0.7-1.5-1.5-1.5s-1.5,0.7-1.5,1.5s0.7,1.5,1.5,1.5S443,173.3,443,172.5z M453,172.5c0-0.8-0.7-1.5-1.5-1.5
	s-1.5,0.7-1.5,1.5s0.7,1.5,1.5,1.5S453,173.3,453,172.5z M463,172.5c0-0.8-0.7-1.5-1.5-1.5s-1.5,0.7-1.5,1.5s0.7,1.5,1.5,1.5
	S463,173.3,463,172.5z M473,172.5c0-0.8-0.7-1.5-1.5-1.5s-1.5,0.7-1.5,1.5s0.7,1.5,1.5,1.5S473,173.3,473,172.5z M363,182.5
	c0-0.8-0.7-1.5-1.5-1.5s-1.5,0.7-1.5,1.5s0.7,1.5,1.5,1.5S363,183.3,363,182.5z M373,182.5c0-0.8-0.7-1.5-1.5-1.5s-1.5,0.7-1.5,1.5
	s0.7,1.5,1.5,1.5S373,183.3,373,182.5z M383,182.5c0-0.8-0.7-1.5-1.5-1.5s-1.5,0.7-1.5,1.5s0.7,1.5,1.5,1.5S383,183.3,383,182.5z
	 M393,182.5c0-0.8-0.7-1.5-1.5-1.5s-1.5,0.7-1.5,1.5s0.7,1.5,1.5,1.5S393,183.3,393,182.5z M403,182.5c0-0.8-0.7-1.5-1.5-1.5
	s-1.5,0.7-1.5,1.5s0.7,1.5,1.5,1.5S403,183.3,403,182.5z M413,182.5c0-0.8-0.7-1.5-1.5-1.5s-1.5,0.7-1.5,1.5s0.7,1.5,1.5,1.5
	S413,183.3,413,182.5z M423,182.5c0-0.8-0.7-1.5-1.5-1.5s-1.5,0.7-1.5,1.5s0.7,1.5,1.5,1.5S423,183.3,423,182.5z M433,182.5
	c0-0.8-0.7-1.5-1.5-1.5s-1.5,0.7-1.5,1.5s0.7,1.5,1.5,1.5S433,183.3,433,182.5z M443,182.5c0-0.8-0.7-1.5-1.5-1.5s-1.5,0.7-1.5,1.5
	s0.7,1.5,1.5,1.5S443,183.3,443,182.5z M453,182.5c0-0.8-0.7-1.5-1.5-1.5s-1.5,0.7-1.5,1.5s0.7,1.5,1.5,1.5S453,183.3,453,182.5z
	 M463,182.5c0-0.8-0.7-1.5-1.5-1.5s-1.5,0.7-1.5,1.5s0.7,1.5,1.5,1.5S463,183.3,463,182.5z M473,182.5c0-0.8-0.7-1.5-1.5-1.5
	s-1.5,0.7-1.5,1.5s0.7,1.5,1.5,1.5S473,183.3,473,182.5z M363,192.5c0-0.8-0.7-1.5-1.5-1.5s-1.5,0.7-1.5,1.5s0.7,1.5,1.5,1.5
	S363,193.3,363,192.5z M373,192.5c0-0.8-0.7-1.5-1.5-1.5s-1.5,0.7-1.5,1.5s0.7,1.5,1.5,1.5S373,193.3,373,192.5z M383,192.5
	c0-0.8-0.7-1.5-1.5-1.5s-1.5,0.7-1.5,1.5s0.7,1.5,1.5,1.5S383,193.3,383,192.5z M393,192.5c0-0.8-0.7-1.5-1.5-1.5s-1.5,0.7-1.5,1.5
	s0.7,1.5,1.5,1.5S393,193.3,393,192.5z M403,192.5c0-0.8-0.7-1.5-1.5-1.5s-1.5,0.7-1.5,1.5s0.7,1.5,1.5,1.5S403,193.3,403,192.5z
	 M413,192.5c0-0.8-0.7-1.5-1.5-1.5s-1.5,0.7-1.5,1.5s0.7,1.5,1.5,1.5S413,193.3,413,192.5z M423,192.5c0-0.8-0.7-1.5-1.5-1.5
	s-1.5,0.7-1.5,1.5s0.7,1.5,1.5,1.5S423,193.3,423,192.5z M433,192.5c0-0.8-0.7-1.5-1.5-1.5s-1.5,0.7-1.5,1.5s0.7,1.5,1.5,1.5
	S433,193.3,433,192.5z M443,192.5c0-0.8-0.7-1.5-1.5-1.5s-1.5,0.7-1.5,1.5s0.7,1.5,1.5,1.5S443,193.3,443,192.5z M453,192.5
	c0-0.8-0.7-1.5-1.5-1.5s-1.5,0.7-1.5,1.5s0.7,1.5,1.5,1.5S453,193.3,453,192.5z M463,192.5c0-0.8-0.7-1.5-1.5-1.5s-1.5,0.7-1.5,1.5
	s0.7,1.5,1.5,1.5S463,193.3,463,192.5z M473,192.5c0-0.8-0.7-1.5-1.5-1.5s-1.5,0.7-1.5,1.5s0.7,1.5,1.5,1.5S473,193.3,473,192.5z
	 M363,202.5c0-0.8-0.7-1.5-1.5-1.5s-1.5,0.7-1.5,1.5s0.7,1.5,1.5,1.5S363,203.3,363,202.5z M373,202.5c0-0.8-0.7-1.5-1.5-1.5
	s-1.5,0.7-1.5,1.5s0.7,1.5,1.5,1.5S373,203.3,373,202.5z M383,202.5c0-0.8-0.7-1.5-1.5-1.5s-1.5,0.7-1.5,1.5s0.7,1.5,1.5,1.5
	S383,203.3,383,202.5z M393,202.5c0-0.8-0.7-1.5-1.5-1.5s-1.5,0.7-1.5,1.5s0.7,1.5,1.5,1.5S393,203.3,393,202.5z M403,202.5
	c0-0.8-0.7-1.5-1.5-1.5s-1.5,0.7-1.5,1.5s0.7,1.5,1.5,1.5S403,203.3,403,202.5z M413,202.5c0-0.8-0.7-1.5-1.5-1.5s-1.5,0.7-1.5,1.5
	s0.7,1.5,1.5,1.5S413,203.3,413,202.5z M423,202.5c0-0.8-0.7-1.5-1.5-1.5s-1.5,0.7-1.5,1.5s0.7,1.5,1.5,1.5S423,203.3,423,202.5z
	 M433,202.5c0-0.8-0.7-1.5-1.5-1.5s-1.5,0.7-1.5,1.5s0.7,1.5,1.5,1.5S433,203.3,433,202.5z M443,202.5c0-0.8-0.7-1.5-1.5-1.5
	s-1.5,0.7-1.5,1.5s0.7,1.5,1.5,1.5S443,203.3,443,202.5z M453,202.5c0-0.8-0.7-1.5-1.5-1.5s-1.5,0.7-1.5,1.5s0.7,1.5,1.5,1.5
	S453,203.3,453,202.5z M463,202.5c0-0.8-0.7-1.5-1.5-1.5s-1.5,0.7-1.5,1.5s0.7,1.5,1.5,1.5S463,203.3,463,202.5z M473,202.5
	c0-0.8-0.7-1.5-1.5-1.5s-1.5,0.7-1.5,1.5s0.7,1.5,1.5,1.5S473,203.3,473,202.5z M3,2.5C3,1.6,2.3,1,1.5,1S0,1.6,0,2.5S0.7,4,1.5,4
	S3,3.3,3,2.5z M13,2.5C13,1.6,12.3,1,11.5,1S10,1.6,10,2.5S10.7,4,11.5,4S13,3.3,13,2.5z M23,2.5C23,1.6,22.3,1,21.5,1
	S20,1.6,20,2.5S20.7,4,21.5,4S23,3.3,23,2.5z M33,2.5C33,1.6,32.3,1,31.5,1S30,1.6,30,2.5S30.7,4,31.5,4C32.3,4,33,3.3,33,2.5z
	 M43,2.5C43,1.6,42.3,1,41.5,1S40,1.6,40,2.5S40.7,4,41.5,4S43,3.3,43,2.5z M53,2.5C53,1.6,52.3,1,51.5,1S50,1.6,50,2.5
	S50.7,4,51.5,4S53,3.3,53,2.5z M63,2.5C63,1.6,62.3,1,61.5,1S60,1.6,60,2.5S60.7,4,61.5,4S63,3.3,63,2.5z M73,2.5
	C73,1.6,72.3,1,71.5,1S70,1.6,70,2.5S70.7,4,71.5,4S73,3.3,73,2.5z M83,2.5C83,1.6,82.3,1,81.5,1S80,1.6,80,2.5S80.7,4,81.5,4
	S83,3.3,83,2.5z M93,2.5C93,1.6,92.3,1,91.5,1S90,1.6,90,2.5S90.7,4,91.5,4S93,3.3,93,2.5z M103,2.5c0-0.8-0.7-1.5-1.5-1.5
	S100,1.6,100,2.5s0.7,1.5,1.5,1.5S103,3.3,103,2.5z M113,2.5c0-0.8-0.7-1.5-1.5-1.5S110,1.6,110,2.5s0.7,1.5,1.5,1.5
	S113,3.3,113,2.5z M3,12.5C3,11.6,2.3,11,1.5,11S0,11.6,0,12.5S0.7,14,1.5,14S3,13.3,3,12.5z M13,12.5c0-0.8-0.7-1.5-1.5-1.5
	S10,11.6,10,12.5s0.7,1.5,1.5,1.5S13,13.3,13,12.5z M23,12.5c0-0.8-0.7-1.5-1.5-1.5S20,11.6,20,12.5s0.7,1.5,1.5,1.5
	S23,13.3,23,12.5z M33,12.5c0-0.8-0.7-1.5-1.5-1.5S30,11.6,30,12.5s0.7,1.5,1.5,1.5C32.3,14,33,13.3,33,12.5z M43,12.5
	c0-0.8-0.7-1.5-1.5-1.5S40,11.6,40,12.5s0.7,1.5,1.5,1.5S43,13.3,43,12.5z M53,12.5c0-0.8-0.7-1.5-1.5-1.5S50,11.6,50,12.5
	s0.7,1.5,1.5,1.5S53,13.3,53,12.5z M63,12.5c0-0.8-0.7-1.5-1.5-1.5S60,11.6,60,12.5s0.7,1.5,1.5,1.5S63,13.3,63,12.5z M73,12.5
	c0-0.8-0.7-1.5-1.5-1.5S70,11.6,70,12.5s0.7,1.5,1.5,1.5S73,13.3,73,12.5z M83,12.5c0-0.8-0.7-1.5-1.5-1.5S80,11.6,80,12.5
	s0.7,1.5,1.5,1.5S83,13.3,83,12.5z M93,12.5c0-0.8-0.7-1.5-1.5-1.5S90,11.6,90,12.5s0.7,1.5,1.5,1.5S93,13.3,93,12.5z M103,12.5
	c0-0.8-0.7-1.5-1.5-1.5s-1.5,0.7-1.5,1.5s0.7,1.5,1.5,1.5S103,13.3,103,12.5z M113,12.5c0-0.8-0.7-1.5-1.5-1.5s-1.5,0.7-1.5,1.5
	s0.7,1.5,1.5,1.5S113,13.3,113,12.5z M3,22.5C3,21.6,2.3,21,1.5,21S0,21.6,0,22.5S0.7,24,1.5,24S3,23.3,3,22.5z M13,22.5
	c0-0.8-0.7-1.5-1.5-1.5S10,21.6,10,22.5s0.7,1.5,1.5,1.5S13,23.3,13,22.5z M23,22.5c0-0.8-0.7-1.5-1.5-1.5S20,21.6,20,22.5
	s0.7,1.5,1.5,1.5S23,23.3,23,22.5z M33,22.5c0-0.8-0.7-1.5-1.5-1.5S30,21.6,30,22.5s0.7,1.5,1.5,1.5C32.3,24,33,23.3,33,22.5z
	 M43,22.5c0-0.8-0.7-1.5-1.5-1.5S40,21.6,40,22.5s0.7,1.5,1.5,1.5S43,23.3,43,22.5z M53,22.5c0-0.8-0.7-1.5-1.5-1.5S50,21.6,50,22.5
	s0.7,1.5,1.5,1.5S53,23.3,53,22.5z M63,22.5c0-0.8-0.7-1.5-1.5-1.5S60,21.6,60,22.5s0.7,1.5,1.5,1.5S63,23.3,63,22.5z M73,22.5
	c0-0.8-0.7-1.5-1.5-1.5S70,21.6,70,22.5s0.7,1.5,1.5,1.5S73,23.3,73,22.5z M83,22.5c0-0.8-0.7-1.5-1.5-1.5S80,21.6,80,22.5
	s0.7,1.5,1.5,1.5S83,23.3,83,22.5z M93,22.5c0-0.8-0.7-1.5-1.5-1.5S90,21.6,90,22.5s0.7,1.5,1.5,1.5S93,23.3,93,22.5z M103,22.5
	c0-0.8-0.7-1.5-1.5-1.5s-1.5,0.7-1.5,1.5s0.7,1.5,1.5,1.5S103,23.3,103,22.5z M113,22.5c0-0.8-0.7-1.5-1.5-1.5s-1.5,0.7-1.5,1.5
	s0.7,1.5,1.5,1.5S113,23.3,113,22.5z M3,32.5C3,31.6,2.3,31,1.5,31S0,31.6,0,32.5C0,33.3,0.7,34,1.5,34S3,33.3,3,32.5z M13,32.5
	c0-0.8-0.7-1.5-1.5-1.5S10,31.6,10,32.5c0,0.8,0.7,1.5,1.5,1.5S13,33.3,13,32.5z M23,32.5c0-0.8-0.7-1.5-1.5-1.5S20,31.6,20,32.5
	c0,0.8,0.7,1.5,1.5,1.5S23,33.3,23,32.5z M33,32.5c0-0.8-0.7-1.5-1.5-1.5S30,31.6,30,32.5c0,0.8,0.7,1.5,1.5,1.5
	C32.3,34,33,33.3,33,32.5z M43,32.5c0-0.8-0.7-1.5-1.5-1.5S40,31.6,40,32.5c0,0.8,0.7,1.5,1.5,1.5S43,33.3,43,32.5z M53,32.5
	c0-0.8-0.7-1.5-1.5-1.5S50,31.6,50,32.5c0,0.8,0.7,1.5,1.5,1.5S53,33.3,53,32.5z M63,32.5c0-0.8-0.7-1.5-1.5-1.5S60,31.6,60,32.5
	c0,0.8,0.7,1.5,1.5,1.5S63,33.3,63,32.5z M73,32.5c0-0.8-0.7-1.5-1.5-1.5S70,31.6,70,32.5c0,0.8,0.7,1.5,1.5,1.5S73,33.3,73,32.5z
	 M83,32.5c0-0.8-0.7-1.5-1.5-1.5S80,31.6,80,32.5c0,0.8,0.7,1.5,1.5,1.5S83,33.3,83,32.5z M93,32.5c0-0.8-0.7-1.5-1.5-1.5
	S90,31.6,90,32.5c0,0.8,0.7,1.5,1.5,1.5S93,33.3,93,32.5z M103,32.5c0-0.8-0.7-1.5-1.5-1.5s-1.5,0.7-1.5,1.5c0,0.8,0.7,1.5,1.5,1.5
	S103,33.3,103,32.5z M113,32.5c0-0.8-0.7-1.5-1.5-1.5s-1.5,0.7-1.5,1.5c0,0.8,0.7,1.5,1.5,1.5S113,33.3,113,32.5z M3,42.5
	C3,41.6,2.3,41,1.5,41S0,41.6,0,42.5S0.7,44,1.5,44S3,43.3,3,42.5z M13,42.5c0-0.8-0.7-1.5-1.5-1.5S10,41.6,10,42.5s0.7,1.5,1.5,1.5
	S13,43.3,13,42.5z M23,42.5c0-0.8-0.7-1.5-1.5-1.5S20,41.6,20,42.5s0.7,1.5,1.5,1.5S23,43.3,23,42.5z M33,42.5
	c0-0.8-0.7-1.5-1.5-1.5S30,41.6,30,42.5s0.7,1.5,1.5,1.5C32.3,44,33,43.3,33,42.5z M43,42.5c0-0.8-0.7-1.5-1.5-1.5S40,41.6,40,42.5
	s0.7,1.5,1.5,1.5S43,43.3,43,42.5z M53,42.5c0-0.8-0.7-1.5-1.5-1.5S50,41.6,50,42.5s0.7,1.5,1.5,1.5S53,43.3,53,42.5z M63,42.5
	c0-0.8-0.7-1.5-1.5-1.5S60,41.6,60,42.5s0.7,1.5,1.5,1.5S63,43.3,63,42.5z M73,42.5c0-0.8-0.7-1.5-1.5-1.5S70,41.6,70,42.5
	s0.7,1.5,1.5,1.5S73,43.3,73,42.5z M83,42.5c0-0.8-0.7-1.5-1.5-1.5S80,41.6,80,42.5s0.7,1.5,1.5,1.5S83,43.3,83,42.5z M93,42.5
	c0-0.8-0.7-1.5-1.5-1.5S90,41.6,90,42.5s0.7,1.5,1.5,1.5S93,43.3,93,42.5z M103,42.5c0-0.8-0.7-1.5-1.5-1.5s-1.5,0.7-1.5,1.5
	s0.7,1.5,1.5,1.5S103,43.3,103,42.5z M113,42.5c0-0.8-0.7-1.5-1.5-1.5s-1.5,0.7-1.5,1.5s0.7,1.5,1.5,1.5S113,43.3,113,42.5z M3,52.5
	C3,51.6,2.3,51,1.5,51S0,51.6,0,52.5S0.7,54,1.5,54S3,53.3,3,52.5z M13,52.5c0-0.8-0.7-1.5-1.5-1.5S10,51.6,10,52.5s0.7,1.5,1.5,1.5
	S13,53.3,13,52.5z M23,52.5c0-0.8-0.7-1.5-1.5-1.5S20,51.6,20,52.5s0.7,1.5,1.5,1.5S23,53.3,23,52.5z M33,52.5
	c0-0.8-0.7-1.5-1.5-1.5S30,51.6,30,52.5s0.7,1.5,1.5,1.5C32.3,54,33,53.3,33,52.5z M43,52.5c0-0.8-0.7-1.5-1.5-1.5S40,51.6,40,52.5
	s0.7,1.5,1.5,1.5S43,53.3,43,52.5z M53,52.5c0-0.8-0.7-1.5-1.5-1.5S50,51.6,50,52.5s0.7,1.5,1.5,1.5S53,53.3,53,52.5z M63,52.5
	c0-0.8-0.7-1.5-1.5-1.5S60,51.6,60,52.5s0.7,1.5,1.5,1.5S63,53.3,63,52.5z M73,52.5c0-0.8-0.7-1.5-1.5-1.5S70,51.6,70,52.5
	s0.7,1.5,1.5,1.5S73,53.3,73,52.5z M83,52.5c0-0.8-0.7-1.5-1.5-1.5S80,51.6,80,52.5s0.7,1.5,1.5,1.5S83,53.3,83,52.5z M93,52.5
	c0-0.8-0.7-1.5-1.5-1.5S90,51.6,90,52.5s0.7,1.5,1.5,1.5S93,53.3,93,52.5z M103,52.5c0-0.8-0.7-1.5-1.5-1.5s-1.5,0.7-1.5,1.5
	s0.7,1.5,1.5,1.5S103,53.3,103,52.5z M113,52.5c0-0.8-0.7-1.5-1.5-1.5s-1.5,0.7-1.5,1.5s0.7,1.5,1.5,1.5S113,53.3,113,52.5z M3,62.5
	C3,61.6,2.3,61,1.5,61S0,61.6,0,62.5S0.7,64,1.5,64S3,63.3,3,62.5z M13,62.5c0-0.8-0.7-1.5-1.5-1.5S10,61.6,10,62.5s0.7,1.5,1.5,1.5
	S13,63.3,13,62.5z M23,62.5c0-0.8-0.7-1.5-1.5-1.5S20,61.6,20,62.5s0.7,1.5,1.5,1.5S23,63.3,23,62.5z M33,62.5
	c0-0.8-0.7-1.5-1.5-1.5S30,61.6,30,62.5s0.7,1.5,1.5,1.5C32.3,64,33,63.3,33,62.5z M43,62.5c0-0.8-0.7-1.5-1.5-1.5S40,61.6,40,62.5
	s0.7,1.5,1.5,1.5S43,63.3,43,62.5z M53,62.5c0-0.8-0.7-1.5-1.5-1.5S50,61.6,50,62.5s0.7,1.5,1.5,1.5S53,63.3,53,62.5z M63,62.5
	c0-0.8-0.7-1.5-1.5-1.5S60,61.6,60,62.5s0.7,1.5,1.5,1.5S63,63.3,63,62.5z M73,62.5c0-0.8-0.7-1.5-1.5-1.5S70,61.6,70,62.5
	s0.7,1.5,1.5,1.5S73,63.3,73,62.5z M83,62.5c0-0.8-0.7-1.5-1.5-1.5S80,61.6,80,62.5s0.7,1.5,1.5,1.5S83,63.3,83,62.5z M93,62.5
	c0-0.8-0.7-1.5-1.5-1.5S90,61.6,90,62.5s0.7,1.5,1.5,1.5S93,63.3,93,62.5z M103,62.5c0-0.8-0.7-1.5-1.5-1.5s-1.5,0.7-1.5,1.5
	s0.7,1.5,1.5,1.5S103,63.3,103,62.5z M113,62.5c0-0.8-0.7-1.5-1.5-1.5s-1.5,0.7-1.5,1.5s0.7,1.5,1.5,1.5S113,63.3,113,62.5z M3,72.5
	C3,71.6,2.3,71,1.5,71S0,71.6,0,72.5S0.7,74,1.5,74S3,73.3,3,72.5z M13,72.5c0-0.8-0.7-1.5-1.5-1.5S10,71.6,10,72.5s0.7,1.5,1.5,1.5
	S13,73.3,13,72.5z M23,72.5c0-0.8-0.7-1.5-1.5-1.5S20,71.6,20,72.5s0.7,1.5,1.5,1.5S23,73.3,23,72.5z M33,72.5
	c0-0.8-0.7-1.5-1.5-1.5S30,71.6,30,72.5s0.7,1.5,1.5,1.5C32.3,74,33,73.3,33,72.5z M43,72.5c0-0.8-0.7-1.5-1.5-1.5S40,71.6,40,72.5
	s0.7,1.5,1.5,1.5S43,73.3,43,72.5z M53,72.5c0-0.8-0.7-1.5-1.5-1.5S50,71.6,50,72.5s0.7,1.5,1.5,1.5S53,73.3,53,72.5z M63,72.5
	c0-0.8-0.7-1.5-1.5-1.5S60,71.6,60,72.5s0.7,1.5,1.5,1.5S63,73.3,63,72.5z M73,72.5c0-0.8-0.7-1.5-1.5-1.5S70,71.6,70,72.5
	s0.7,1.5,1.5,1.5S73,73.3,73,72.5z M83,72.5c0-0.8-0.7-1.5-1.5-1.5S80,71.6,80,72.5s0.7,1.5,1.5,1.5S83,73.3,83,72.5z M93,72.5
	c0-0.8-0.7-1.5-1.5-1.5S90,71.6,90,72.5s0.7,1.5,1.5,1.5S93,73.3,93,72.5z M103,72.5c0-0.8-0.7-1.5-1.5-1.5s-1.5,0.7-1.5,1.5
	s0.7,1.5,1.5,1.5S103,73.3,103,72.5z M113,72.5c0-0.8-0.7-1.5-1.5-1.5s-1.5,0.7-1.5,1.5s0.7,1.5,1.5,1.5S113,73.3,113,72.5z
	 M123,2.5c0-0.8-0.7-1.5-1.5-1.5S120,1.6,120,2.5s0.7,1.5,1.5,1.5S123,3.3,123,2.5z M133,2.5c0-0.8-0.7-1.5-1.5-1.5S130,1.6,130,2.5
	s0.7,1.5,1.5,1.5S133,3.3,133,2.5z M143,2.5c0-0.8-0.7-1.5-1.5-1.5S140,1.6,140,2.5s0.7,1.5,1.5,1.5S143,3.3,143,2.5z M153,2.5
	c0-0.8-0.7-1.5-1.5-1.5S150,1.6,150,2.5s0.7,1.5,1.5,1.5S153,3.3,153,2.5z M163,2.5c0-0.8-0.7-1.5-1.5-1.5S160,1.6,160,2.5
	s0.7,1.5,1.5,1.5S163,3.3,163,2.5z M173,2.5c0-0.8-0.7-1.5-1.5-1.5S170,1.6,170,2.5s0.7,1.5,1.5,1.5S173,3.3,173,2.5z M183,2.5
	c0-0.8-0.7-1.5-1.5-1.5S180,1.6,180,2.5s0.7,1.5,1.5,1.5S183,3.3,183,2.5z M193,2.5c0-0.8-0.7-1.5-1.5-1.5S190,1.6,190,2.5
	s0.7,1.5,1.5,1.5S193,3.3,193,2.5z M203,2.5c0-0.8-0.7-1.5-1.5-1.5S200,1.6,200,2.5s0.7,1.5,1.5,1.5S203,3.3,203,2.5z M213,2.5
	c0-0.8-0.7-1.5-1.5-1.5S210,1.6,210,2.5s0.7,1.5,1.5,1.5S213,3.3,213,2.5z M223,2.5c0-0.8-0.7-1.5-1.5-1.5S220,1.6,220,2.5
	s0.7,1.5,1.5,1.5S223,3.3,223,2.5z M233,2.5c0-0.8-0.7-1.5-1.5-1.5S230,1.6,230,2.5s0.7,1.5,1.5,1.5S233,3.3,233,2.5z M123,12.5
	c0-0.8-0.7-1.5-1.5-1.5s-1.5,0.7-1.5,1.5s0.7,1.5,1.5,1.5S123,13.3,123,12.5z M133,12.5c0-0.8-0.7-1.5-1.5-1.5s-1.5,0.7-1.5,1.5
	s0.7,1.5,1.5,1.5S133,13.3,133,12.5z M143,12.5c0-0.8-0.7-1.5-1.5-1.5s-1.5,0.7-1.5,1.5s0.7,1.5,1.5,1.5S143,13.3,143,12.5z
	 M153,12.5c0-0.8-0.7-1.5-1.5-1.5s-1.5,0.7-1.5,1.5s0.7,1.5,1.5,1.5S153,13.3,153,12.5z M163,12.5c0-0.8-0.7-1.5-1.5-1.5
	s-1.5,0.7-1.5,1.5s0.7,1.5,1.5,1.5S163,13.3,163,12.5z M173,12.5c0-0.8-0.7-1.5-1.5-1.5s-1.5,0.7-1.5,1.5s0.7,1.5,1.5,1.5
	S173,13.3,173,12.5z M183,12.5c0-0.8-0.7-1.5-1.5-1.5s-1.5,0.7-1.5,1.5s0.7,1.5,1.5,1.5S183,13.3,183,12.5z M193,12.5
	c0-0.8-0.7-1.5-1.5-1.5s-1.5,0.7-1.5,1.5s0.7,1.5,1.5,1.5S193,13.3,193,12.5z M203,12.5c0-0.8-0.7-1.5-1.5-1.5s-1.5,0.7-1.5,1.5
	s0.7,1.5,1.5,1.5S203,13.3,203,12.5z M213,12.5c0-0.8-0.7-1.5-1.5-1.5s-1.5,0.7-1.5,1.5s0.7,1.5,1.5,1.5S213,13.3,213,12.5z
	 M223,12.5c0-0.8-0.7-1.5-1.5-1.5s-1.5,0.7-1.5,1.5s0.7,1.5,1.5,1.5S223,13.3,223,12.5z M233,12.5c0-0.8-0.7-1.5-1.5-1.5
	s-1.5,0.7-1.5,1.5s0.7,1.5,1.5,1.5S233,13.3,233,12.5z M123,22.5c0-0.8-0.7-1.5-1.5-1.5s-1.5,0.7-1.5,1.5s0.7,1.5,1.5,1.5
	S123,23.3,123,22.5z M133,22.5c0-0.8-0.7-1.5-1.5-1.5s-1.5,0.7-1.5,1.5s0.7,1.5,1.5,1.5S133,23.3,133,22.5z M143,22.5
	c0-0.8-0.7-1.5-1.5-1.5s-1.5,0.7-1.5,1.5s0.7,1.5,1.5,1.5S143,23.3,143,22.5z M153,22.5c0-0.8-0.7-1.5-1.5-1.5s-1.5,0.7-1.5,1.5
	s0.7,1.5,1.5,1.5S153,23.3,153,22.5z M163,22.5c0-0.8-0.7-1.5-1.5-1.5s-1.5,0.7-1.5,1.5s0.7,1.5,1.5,1.5S163,23.3,163,22.5z
	 M173,22.5c0-0.8-0.7-1.5-1.5-1.5s-1.5,0.7-1.5,1.5s0.7,1.5,1.5,1.5S173,23.3,173,22.5z M183,22.5c0-0.8-0.7-1.5-1.5-1.5
	s-1.5,0.7-1.5,1.5s0.7,1.5,1.5,1.5S183,23.3,183,22.5z M193,22.5c0-0.8-0.7-1.5-1.5-1.5s-1.5,0.7-1.5,1.5s0.7,1.5,1.5,1.5
	S193,23.3,193,22.5z M203,22.5c0-0.8-0.7-1.5-1.5-1.5s-1.5,0.7-1.5,1.5s0.7,1.5,1.5,1.5S203,23.3,203,22.5z M213,22.5
	c0-0.8-0.7-1.5-1.5-1.5s-1.5,0.7-1.5,1.5s0.7,1.5,1.5,1.5S213,23.3,213,22.5z M223,22.5c0-0.8-0.7-1.5-1.5-1.5s-1.5,0.7-1.5,1.5
	s0.7,1.5,1.5,1.5S223,23.3,223,22.5z M233,22.5c0-0.8-0.7-1.5-1.5-1.5s-1.5,0.7-1.5,1.5s0.7,1.5,1.5,1.5S233,23.3,233,22.5z
	 M123,32.5c0-0.8-0.7-1.5-1.5-1.5s-1.5,0.7-1.5,1.5c0,0.8,0.7,1.5,1.5,1.5S123,33.3,123,32.5z M133,32.5c0-0.8-0.7-1.5-1.5-1.5
	s-1.5,0.7-1.5,1.5c0,0.8,0.7,1.5,1.5,1.5S133,33.3,133,32.5z M143,32.5c0-0.8-0.7-1.5-1.5-1.5s-1.5,0.7-1.5,1.5
	c0,0.8,0.7,1.5,1.5,1.5S143,33.3,143,32.5z M153,32.5c0-0.8-0.7-1.5-1.5-1.5s-1.5,0.7-1.5,1.5c0,0.8,0.7,1.5,1.5,1.5
	S153,33.3,153,32.5z M163,32.5c0-0.8-0.7-1.5-1.5-1.5s-1.5,0.7-1.5,1.5c0,0.8,0.7,1.5,1.5,1.5S163,33.3,163,32.5z M173,32.5
	c0-0.8-0.7-1.5-1.5-1.5s-1.5,0.7-1.5,1.5c0,0.8,0.7,1.5,1.5,1.5S173,33.3,173,32.5z M183,32.5c0-0.8-0.7-1.5-1.5-1.5
	s-1.5,0.7-1.5,1.5c0,0.8,0.7,1.5,1.5,1.5S183,33.3,183,32.5z M193,32.5c0-0.8-0.7-1.5-1.5-1.5s-1.5,0.7-1.5,1.5
	c0,0.8,0.7,1.5,1.5,1.5S193,33.3,193,32.5z M203,32.5c0-0.8-0.7-1.5-1.5-1.5s-1.5,0.7-1.5,1.5c0,0.8,0.7,1.5,1.5,1.5
	S203,33.3,203,32.5z M213,32.5c0-0.8-0.7-1.5-1.5-1.5s-1.5,0.7-1.5,1.5c0,0.8,0.7,1.5,1.5,1.5S213,33.3,213,32.5z M223,32.5
	c0-0.8-0.7-1.5-1.5-1.5s-1.5,0.7-1.5,1.5c0,0.8,0.7,1.5,1.5,1.5S223,33.3,223,32.5z M233,32.5c0-0.8-0.7-1.5-1.5-1.5
	s-1.5,0.7-1.5,1.5c0,0.8,0.7,1.5,1.5,1.5S233,33.3,233,32.5z M123,42.5c0-0.8-0.7-1.5-1.5-1.5s-1.5,0.7-1.5,1.5s0.7,1.5,1.5,1.5
	S123,43.3,123,42.5z M133,42.5c0-0.8-0.7-1.5-1.5-1.5s-1.5,0.7-1.5,1.5s0.7,1.5,1.5,1.5S133,43.3,133,42.5z M143,42.5
	c0-0.8-0.7-1.5-1.5-1.5s-1.5,0.7-1.5,1.5s0.7,1.5,1.5,1.5S143,43.3,143,42.5z M153,42.5c0-0.8-0.7-1.5-1.5-1.5s-1.5,0.7-1.5,1.5
	s0.7,1.5,1.5,1.5S153,43.3,153,42.5z M163,42.5c0-0.8-0.7-1.5-1.5-1.5s-1.5,0.7-1.5,1.5s0.7,1.5,1.5,1.5S163,43.3,163,42.5z
	 M173,42.5c0-0.8-0.7-1.5-1.5-1.5s-1.5,0.7-1.5,1.5s0.7,1.5,1.5,1.5S173,43.3,173,42.5z M183,42.5c0-0.8-0.7-1.5-1.5-1.5
	s-1.5,0.7-1.5,1.5s0.7,1.5,1.5,1.5S183,43.3,183,42.5z M193,42.5c0-0.8-0.7-1.5-1.5-1.5s-1.5,0.7-1.5,1.5s0.7,1.5,1.5,1.5
	S193,43.3,193,42.5z M203,42.5c0-0.8-0.7-1.5-1.5-1.5s-1.5,0.7-1.5,1.5s0.7,1.5,1.5,1.5S203,43.3,203,42.5z M213,42.5
	c0-0.8-0.7-1.5-1.5-1.5s-1.5,0.7-1.5,1.5s0.7,1.5,1.5,1.5S213,43.3,213,42.5z M223,42.5c0-0.8-0.7-1.5-1.5-1.5s-1.5,0.7-1.5,1.5
	s0.7,1.5,1.5,1.5S223,43.3,223,42.5z M233,42.5c0-0.8-0.7-1.5-1.5-1.5s-1.5,0.7-1.5,1.5s0.7,1.5,1.5,1.5S233,43.3,233,42.5z
	 M123,52.5c0-0.8-0.7-1.5-1.5-1.5s-1.5,0.7-1.5,1.5s0.7,1.5,1.5,1.5S123,53.3,123,52.5z M133,52.5c0-0.8-0.7-1.5-1.5-1.5
	s-1.5,0.7-1.5,1.5s0.7,1.5,1.5,1.5S133,53.3,133,52.5z M143,52.5c0-0.8-0.7-1.5-1.5-1.5s-1.5,0.7-1.5,1.5s0.7,1.5,1.5,1.5
	S143,53.3,143,52.5z M153,52.5c0-0.8-0.7-1.5-1.5-1.5s-1.5,0.7-1.5,1.5s0.7,1.5,1.5,1.5S153,53.3,153,52.5z M163,52.5
	c0-0.8-0.7-1.5-1.5-1.5s-1.5,0.7-1.5,1.5s0.7,1.5,1.5,1.5S163,53.3,163,52.5z M173,52.5c0-0.8-0.7-1.5-1.5-1.5s-1.5,0.7-1.5,1.5
	s0.7,1.5,1.5,1.5S173,53.3,173,52.5z M183,52.5c0-0.8-0.7-1.5-1.5-1.5s-1.5,0.7-1.5,1.5s0.7,1.5,1.5,1.5S183,53.3,183,52.5z
	 M193,52.5c0-0.8-0.7-1.5-1.5-1.5s-1.5,0.7-1.5,1.5s0.7,1.5,1.5,1.5S193,53.3,193,52.5z M203,52.5c0-0.8-0.7-1.5-1.5-1.5
	s-1.5,0.7-1.5,1.5s0.7,1.5,1.5,1.5S203,53.3,203,52.5z M213,52.5c0-0.8-0.7-1.5-1.5-1.5s-1.5,0.7-1.5,1.5s0.7,1.5,1.5,1.5
	S213,53.3,213,52.5z M223,52.5c0-0.8-0.7-1.5-1.5-1.5s-1.5,0.7-1.5,1.5s0.7,1.5,1.5,1.5S223,53.3,223,52.5z M233,52.5
	c0-0.8-0.7-1.5-1.5-1.5s-1.5,0.7-1.5,1.5s0.7,1.5,1.5,1.5S233,53.3,233,52.5z M123,62.5c0-0.8-0.7-1.5-1.5-1.5s-1.5,0.7-1.5,1.5
	s0.7,1.5,1.5,1.5S123,63.3,123,62.5z M133,62.5c0-0.8-0.7-1.5-1.5-1.5s-1.5,0.7-1.5,1.5s0.7,1.5,1.5,1.5S133,63.3,133,62.5z
	 M143,62.5c0-0.8-0.7-1.5-1.5-1.5s-1.5,0.7-1.5,1.5s0.7,1.5,1.5,1.5S143,63.3,143,62.5z M153,62.5c0-0.8-0.7-1.5-1.5-1.5
	s-1.5,0.7-1.5,1.5s0.7,1.5,1.5,1.5S153,63.3,153,62.5z M163,62.5c0-0.8-0.7-1.5-1.5-1.5s-1.5,0.7-1.5,1.5s0.7,1.5,1.5,1.5
	S163,63.3,163,62.5z M173,62.5c0-0.8-0.7-1.5-1.5-1.5s-1.5,0.7-1.5,1.5s0.7,1.5,1.5,1.5S173,63.3,173,62.5z M183,62.5
	c0-0.8-0.7-1.5-1.5-1.5s-1.5,0.7-1.5,1.5s0.7,1.5,1.5,1.5S183,63.3,183,62.5z M193,62.5c0-0.8-0.7-1.5-1.5-1.5s-1.5,0.7-1.5,1.5
	s0.7,1.5,1.5,1.5S193,63.3,193,62.5z M203,62.5c0-0.8-0.7-1.5-1.5-1.5s-1.5,0.7-1.5,1.5s0.7,1.5,1.5,1.5S203,63.3,203,62.5z
	 M213,62.5c0-0.8-0.7-1.5-1.5-1.5s-1.5,0.7-1.5,1.5s0.7,1.5,1.5,1.5S213,63.3,213,62.5z M223,62.5c0-0.8-0.7-1.5-1.5-1.5
	s-1.5,0.7-1.5,1.5s0.7,1.5,1.5,1.5S223,63.3,223,62.5z M233,62.5c0-0.8-0.7-1.5-1.5-1.5s-1.5,0.7-1.5,1.5s0.7,1.5,1.5,1.5
	S233,63.3,233,62.5z M123,72.5c0-0.8-0.7-1.5-1.5-1.5s-1.5,0.7-1.5,1.5s0.7,1.5,1.5,1.5S123,73.3,123,72.5z M133,72.5
	c0-0.8-0.7-1.5-1.5-1.5s-1.5,0.7-1.5,1.5s0.7,1.5,1.5,1.5S133,73.3,133,72.5z M143,72.5c0-0.8-0.7-1.5-1.5-1.5s-1.5,0.7-1.5,1.5
	s0.7,1.5,1.5,1.5S143,73.3,143,72.5z M153,72.5c0-0.8-0.7-1.5-1.5-1.5s-1.5,0.7-1.5,1.5s0.7,1.5,1.5,1.5S153,73.3,153,72.5z
	 M163,72.5c0-0.8-0.7-1.5-1.5-1.5s-1.5,0.7-1.5,1.5s0.7,1.5,1.5,1.5S163,73.3,163,72.5z M173,72.5c0-0.8-0.7-1.5-1.5-1.5
	s-1.5,0.7-1.5,1.5s0.7,1.5,1.5,1.5S173,73.3,173,72.5z M183,72.5c0-0.8-0.7-1.5-1.5-1.5s-1.5,0.7-1.5,1.5s0.7,1.5,1.5,1.5
	S183,73.3,183,72.5z M193,72.5c0-0.8-0.7-1.5-1.5-1.5s-1.5,0.7-1.5,1.5s0.7,1.5,1.5,1.5S193,73.3,193,72.5z M203,72.5
	c0-0.8-0.7-1.5-1.5-1.5s-1.5,0.7-1.5,1.5s0.7,1.5,1.5,1.5S203,73.3,203,72.5z M213,72.5c0-0.8-0.7-1.5-1.5-1.5s-1.5,0.7-1.5,1.5
	s0.7,1.5,1.5,1.5S213,73.3,213,72.5z M223,72.5c0-0.8-0.7-1.5-1.5-1.5s-1.5,0.7-1.5,1.5s0.7,1.5,1.5,1.5S223,73.3,223,72.5z
	 M233,72.5c0-0.8-0.7-1.5-1.5-1.5s-1.5,0.7-1.5,1.5s0.7,1.5,1.5,1.5S233,73.3,233,72.5z M243,2.5c0-0.8-0.7-1.5-1.5-1.5
	S240,1.6,240,2.5s0.7,1.5,1.5,1.5S243,3.3,243,2.5z M253,2.5c0-0.8-0.7-1.5-1.5-1.5S250,1.6,250,2.5s0.7,1.5,1.5,1.5
	S253,3.3,253,2.5z M263,2.5c0-0.8-0.7-1.5-1.5-1.5S260,1.6,260,2.5s0.7,1.5,1.5,1.5S263,3.3,263,2.5z M273,2.5
	c0-0.8-0.7-1.5-1.5-1.5S270,1.6,270,2.5s0.7,1.5,1.5,1.5S273,3.3,273,2.5z M283,2.5c0-0.8-0.7-1.5-1.5-1.5S280,1.6,280,2.5
	s0.7,1.5,1.5,1.5S283,3.3,283,2.5z M293,2.5c0-0.8-0.7-1.5-1.5-1.5S290,1.6,290,2.5s0.7,1.5,1.5,1.5S293,3.3,293,2.5z M303,2.5
	c0-0.8-0.7-1.5-1.5-1.5S300,1.6,300,2.5s0.7,1.5,1.5,1.5S303,3.3,303,2.5z M313,2.5c0-0.8-0.7-1.5-1.5-1.5S310,1.6,310,2.5
	s0.7,1.5,1.5,1.5S313,3.3,313,2.5z M323,2.5c0-0.8-0.7-1.5-1.5-1.5S320,1.6,320,2.5s0.7,1.5,1.5,1.5S323,3.3,323,2.5z M333,2.5
	c0-0.8-0.7-1.5-1.5-1.5S330,1.6,330,2.5s0.7,1.5,1.5,1.5S333,3.3,333,2.5z M343,2.5c0-0.8-0.7-1.5-1.5-1.5S340,1.6,340,2.5
	s0.7,1.5,1.5,1.5S343,3.3,343,2.5z M353,2.5c0-0.8-0.7-1.5-1.5-1.5S350,1.6,350,2.5s0.7,1.5,1.5,1.5S353,3.3,353,2.5z M243,12.5
	c0-0.8-0.7-1.5-1.5-1.5s-1.5,0.7-1.5,1.5s0.7,1.5,1.5,1.5S243,13.3,243,12.5z M253,12.5c0-0.8-0.7-1.5-1.5-1.5s-1.5,0.7-1.5,1.5
	s0.7,1.5,1.5,1.5S253,13.3,253,12.5z M263,12.5c0-0.8-0.7-1.5-1.5-1.5s-1.5,0.7-1.5,1.5s0.7,1.5,1.5,1.5S263,13.3,263,12.5z
	 M273,12.5c0-0.8-0.7-1.5-1.5-1.5s-1.5,0.7-1.5,1.5s0.7,1.5,1.5,1.5S273,13.3,273,12.5z M283,12.5c0-0.8-0.7-1.5-1.5-1.5
	s-1.5,0.7-1.5,1.5s0.7,1.5,1.5,1.5S283,13.3,283,12.5z M293,12.5c0-0.8-0.7-1.5-1.5-1.5s-1.5,0.7-1.5,1.5s0.7,1.5,1.5,1.5
	S293,13.3,293,12.5z M303,12.5c0-0.8-0.7-1.5-1.5-1.5s-1.5,0.7-1.5,1.5s0.7,1.5,1.5,1.5S303,13.3,303,12.5z M313,12.5
	c0-0.8-0.7-1.5-1.5-1.5s-1.5,0.7-1.5,1.5s0.7,1.5,1.5,1.5S313,13.3,313,12.5z M323,12.5c0-0.8-0.7-1.5-1.5-1.5s-1.5,0.7-1.5,1.5
	s0.7,1.5,1.5,1.5S323,13.3,323,12.5z M333,12.5c0-0.8-0.7-1.5-1.5-1.5s-1.5,0.7-1.5,1.5s0.7,1.5,1.5,1.5S333,13.3,333,12.5z
	 M343,12.5c0-0.8-0.7-1.5-1.5-1.5s-1.5,0.7-1.5,1.5s0.7,1.5,1.5,1.5S343,13.3,343,12.5z M353,12.5c0-0.8-0.7-1.5-1.5-1.5
	s-1.5,0.7-1.5,1.5s0.7,1.5,1.5,1.5S353,13.3,353,12.5z M243,22.5c0-0.8-0.7-1.5-1.5-1.5s-1.5,0.7-1.5,1.5s0.7,1.5,1.5,1.5
	S243,23.3,243,22.5z M253,22.5c0-0.8-0.7-1.5-1.5-1.5s-1.5,0.7-1.5,1.5s0.7,1.5,1.5,1.5S253,23.3,253,22.5z M263,22.5
	c0-0.8-0.7-1.5-1.5-1.5s-1.5,0.7-1.5,1.5s0.7,1.5,1.5,1.5S263,23.3,263,22.5z M273,22.5c0-0.8-0.7-1.5-1.5-1.5s-1.5,0.7-1.5,1.5
	s0.7,1.5,1.5,1.5S273,23.3,273,22.5z M283,22.5c0-0.8-0.7-1.5-1.5-1.5s-1.5,0.7-1.5,1.5s0.7,1.5,1.5,1.5S283,23.3,283,22.5z
	 M293,22.5c0-0.8-0.7-1.5-1.5-1.5s-1.5,0.7-1.5,1.5s0.7,1.5,1.5,1.5S293,23.3,293,22.5z M303,22.5c0-0.8-0.7-1.5-1.5-1.5
	s-1.5,0.7-1.5,1.5s0.7,1.5,1.5,1.5S303,23.3,303,22.5z M313,22.5c0-0.8-0.7-1.5-1.5-1.5s-1.5,0.7-1.5,1.5s0.7,1.5,1.5,1.5
	S313,23.3,313,22.5z M323,22.5c0-0.8-0.7-1.5-1.5-1.5s-1.5,0.7-1.5,1.5s0.7,1.5,1.5,1.5S323,23.3,323,22.5z M333,22.5
	c0-0.8-0.7-1.5-1.5-1.5s-1.5,0.7-1.5,1.5s0.7,1.5,1.5,1.5S333,23.3,333,22.5z M343,22.5c0-0.8-0.7-1.5-1.5-1.5s-1.5,0.7-1.5,1.5
	s0.7,1.5,1.5,1.5S343,23.3,343,22.5z M353,22.5c0-0.8-0.7-1.5-1.5-1.5s-1.5,0.7-1.5,1.5s0.7,1.5,1.5,1.5S353,23.3,353,22.5z
	 M243,32.5c0-0.8-0.7-1.5-1.5-1.5s-1.5,0.7-1.5,1.5c0,0.8,0.7,1.5,1.5,1.5S243,33.3,243,32.5z M253,32.5c0-0.8-0.7-1.5-1.5-1.5
	s-1.5,0.7-1.5,1.5c0,0.8,0.7,1.5,1.5,1.5S253,33.3,253,32.5z M263,32.5c0-0.8-0.7-1.5-1.5-1.5s-1.5,0.7-1.5,1.5
	c0,0.8,0.7,1.5,1.5,1.5S263,33.3,263,32.5z M273,32.5c0-0.8-0.7-1.5-1.5-1.5s-1.5,0.7-1.5,1.5c0,0.8,0.7,1.5,1.5,1.5
	S273,33.3,273,32.5z M283,32.5c0-0.8-0.7-1.5-1.5-1.5s-1.5,0.7-1.5,1.5c0,0.8,0.7,1.5,1.5,1.5S283,33.3,283,32.5z M293,32.5
	c0-0.8-0.7-1.5-1.5-1.5s-1.5,0.7-1.5,1.5c0,0.8,0.7,1.5,1.5,1.5S293,33.3,293,32.5z M303,32.5c0-0.8-0.7-1.5-1.5-1.5
	s-1.5,0.7-1.5,1.5c0,0.8,0.7,1.5,1.5,1.5S303,33.3,303,32.5z M313,32.5c0-0.8-0.7-1.5-1.5-1.5s-1.5,0.7-1.5,1.5
	c0,0.8,0.7,1.5,1.5,1.5S313,33.3,313,32.5z M323,32.5c0-0.8-0.7-1.5-1.5-1.5s-1.5,0.7-1.5,1.5c0,0.8,0.7,1.5,1.5,1.5
	S323,33.3,323,32.5z M333,32.5c0-0.8-0.7-1.5-1.5-1.5s-1.5,0.7-1.5,1.5c0,0.8,0.7,1.5,1.5,1.5S333,33.3,333,32.5z M343,32.5
	c0-0.8-0.7-1.5-1.5-1.5s-1.5,0.7-1.5,1.5c0,0.8,0.7,1.5,1.5,1.5S343,33.3,343,32.5z M353,32.5c0-0.8-0.7-1.5-1.5-1.5
	s-1.5,0.7-1.5,1.5c0,0.8,0.7,1.5,1.5,1.5S353,33.3,353,32.5z M243,42.5c0-0.8-0.7-1.5-1.5-1.5s-1.5,0.7-1.5,1.5s0.7,1.5,1.5,1.5
	S243,43.3,243,42.5z M253,42.5c0-0.8-0.7-1.5-1.5-1.5s-1.5,0.7-1.5,1.5s0.7,1.5,1.5,1.5S253,43.3,253,42.5z M263,42.5
	c0-0.8-0.7-1.5-1.5-1.5s-1.5,0.7-1.5,1.5s0.7,1.5,1.5,1.5S263,43.3,263,42.5z M273,42.5c0-0.8-0.7-1.5-1.5-1.5s-1.5,0.7-1.5,1.5
	s0.7,1.5,1.5,1.5S273,43.3,273,42.5z M283,42.5c0-0.8-0.7-1.5-1.5-1.5s-1.5,0.7-1.5,1.5s0.7,1.5,1.5,1.5S283,43.3,283,42.5z
	 M293,42.5c0-0.8-0.7-1.5-1.5-1.5s-1.5,0.7-1.5,1.5s0.7,1.5,1.5,1.5S293,43.3,293,42.5z M303,42.5c0-0.8-0.7-1.5-1.5-1.5
	s-1.5,0.7-1.5,1.5s0.7,1.5,1.5,1.5S303,43.3,303,42.5z M313,42.5c0-0.8-0.7-1.5-1.5-1.5s-1.5,0.7-1.5,1.5s0.7,1.5,1.5,1.5
	S313,43.3,313,42.5z M323,42.5c0-0.8-0.7-1.5-1.5-1.5s-1.5,0.7-1.5,1.5s0.7,1.5,1.5,1.5S323,43.3,323,42.5z M333,42.5
	c0-0.8-0.7-1.5-1.5-1.5s-1.5,0.7-1.5,1.5s0.7,1.5,1.5,1.5S333,43.3,333,42.5z M343,42.5c0-0.8-0.7-1.5-1.5-1.5s-1.5,0.7-1.5,1.5
	s0.7,1.5,1.5,1.5S343,43.3,343,42.5z M353,42.5c0-0.8-0.7-1.5-1.5-1.5s-1.5,0.7-1.5,1.5s0.7,1.5,1.5,1.5S353,43.3,353,42.5z
	 M243,52.5c0-0.8-0.7-1.5-1.5-1.5s-1.5,0.7-1.5,1.5s0.7,1.5,1.5,1.5S243,53.3,243,52.5z M253,52.5c0-0.8-0.7-1.5-1.5-1.5
	s-1.5,0.7-1.5,1.5s0.7,1.5,1.5,1.5S253,53.3,253,52.5z M263,52.5c0-0.8-0.7-1.5-1.5-1.5s-1.5,0.7-1.5,1.5s0.7,1.5,1.5,1.5
	S263,53.3,263,52.5z M273,52.5c0-0.8-0.7-1.5-1.5-1.5s-1.5,0.7-1.5,1.5s0.7,1.5,1.5,1.5S273,53.3,273,52.5z M283,52.5
	c0-0.8-0.7-1.5-1.5-1.5s-1.5,0.7-1.5,1.5s0.7,1.5,1.5,1.5S283,53.3,283,52.5z M293,52.5c0-0.8-0.7-1.5-1.5-1.5s-1.5,0.7-1.5,1.5
	s0.7,1.5,1.5,1.5S293,53.3,293,52.5z M303,52.5c0-0.8-0.7-1.5-1.5-1.5s-1.5,0.7-1.5,1.5s0.7,1.5,1.5,1.5S303,53.3,303,52.5z
	 M313,52.5c0-0.8-0.7-1.5-1.5-1.5s-1.5,0.7-1.5,1.5s0.7,1.5,1.5,1.5S313,53.3,313,52.5z M323,52.5c0-0.8-0.7-1.5-1.5-1.5
	s-1.5,0.7-1.5,1.5s0.7,1.5,1.5,1.5S323,53.3,323,52.5z M333,52.5c0-0.8-0.7-1.5-1.5-1.5s-1.5,0.7-1.5,1.5s0.7,1.5,1.5,1.5
	S333,53.3,333,52.5z M343,52.5c0-0.8-0.7-1.5-1.5-1.5s-1.5,0.7-1.5,1.5s0.7,1.5,1.5,1.5S343,53.3,343,52.5z M353,52.5
	c0-0.8-0.7-1.5-1.5-1.5s-1.5,0.7-1.5,1.5s0.7,1.5,1.5,1.5S353,53.3,353,52.5z M243,62.5c0-0.8-0.7-1.5-1.5-1.5s-1.5,0.7-1.5,1.5
	s0.7,1.5,1.5,1.5S243,63.3,243,62.5z M253,62.5c0-0.8-0.7-1.5-1.5-1.5s-1.5,0.7-1.5,1.5s0.7,1.5,1.5,1.5S253,63.3,253,62.5z
	 M263,62.5c0-0.8-0.7-1.5-1.5-1.5s-1.5,0.7-1.5,1.5s0.7,1.5,1.5,1.5S263,63.3,263,62.5z M273,62.5c0-0.8-0.7-1.5-1.5-1.5
	s-1.5,0.7-1.5,1.5s0.7,1.5,1.5,1.5S273,63.3,273,62.5z M283,62.5c0-0.8-0.7-1.5-1.5-1.5s-1.5,0.7-1.5,1.5s0.7,1.5,1.5,1.5
	S283,63.3,283,62.5z M293,62.5c0-0.8-0.7-1.5-1.5-1.5s-1.5,0.7-1.5,1.5s0.7,1.5,1.5,1.5S293,63.3,293,62.5z M303,62.5
	c0-0.8-0.7-1.5-1.5-1.5s-1.5,0.7-1.5,1.5s0.7,1.5,1.5,1.5S303,63.3,303,62.5z M313,62.5c0-0.8-0.7-1.5-1.5-1.5s-1.5,0.7-1.5,1.5
	s0.7,1.5,1.5,1.5S313,63.3,313,62.5z M323,62.5c0-0.8-0.7-1.5-1.5-1.5s-1.5,0.7-1.5,1.5s0.7,1.5,1.5,1.5S323,63.3,323,62.5z
	 M333,62.5c0-0.8-0.7-1.5-1.5-1.5s-1.5,0.7-1.5,1.5s0.7,1.5,1.5,1.5S333,63.3,333,62.5z M343,62.5c0-0.8-0.7-1.5-1.5-1.5
	s-1.5,0.7-1.5,1.5s0.7,1.5,1.5,1.5S343,63.3,343,62.5z M353,62.5c0-0.8-0.7-1.5-1.5-1.5s-1.5,0.7-1.5,1.5s0.7,1.5,1.5,1.5
	S353,63.3,353,62.5z M243,72.5c0-0.8-0.7-1.5-1.5-1.5s-1.5,0.7-1.5,1.5s0.7,1.5,1.5,1.5S243,73.3,243,72.5z M253,72.5
	c0-0.8-0.7-1.5-1.5-1.5s-1.5,0.7-1.5,1.5s0.7,1.5,1.5,1.5S253,73.3,253,72.5z M263,72.5c0-0.8-0.7-1.5-1.5-1.5s-1.5,0.7-1.5,1.5
	s0.7,1.5,1.5,1.5S263,73.3,263,72.5z M273,72.5c0-0.8-0.7-1.5-1.5-1.5s-1.5,0.7-1.5,1.5s0.7,1.5,1.5,1.5S273,73.3,273,72.5z
	 M283,72.5c0-0.8-0.7-1.5-1.5-1.5s-1.5,0.7-1.5,1.5s0.7,1.5,1.5,1.5S283,73.3,283,72.5z M293,72.5c0-0.8-0.7-1.5-1.5-1.5
	s-1.5,0.7-1.5,1.5s0.7,1.5,1.5,1.5S293,73.3,293,72.5z M303,72.5c0-0.8-0.7-1.5-1.5-1.5s-1.5,0.7-1.5,1.5s0.7,1.5,1.5,1.5
	S303,73.3,303,72.5z M313,72.5c0-0.8-0.7-1.5-1.5-1.5s-1.5,0.7-1.5,1.5s0.7,1.5,1.5,1.5S313,73.3,313,72.5z M323,72.5
	c0-0.8-0.7-1.5-1.5-1.5s-1.5,0.7-1.5,1.5s0.7,1.5,1.5,1.5S323,73.3,323,72.5z M333,72.5c0-0.8-0.7-1.5-1.5-1.5s-1.5,0.7-1.5,1.5
	s0.7,1.5,1.5,1.5S333,73.3,333,72.5z M343,72.5c0-0.8-0.7-1.5-1.5-1.5s-1.5,0.7-1.5,1.5s0.7,1.5,1.5,1.5S343,73.3,343,72.5z
	 M353,72.5c0-0.8-0.7-1.5-1.5-1.5s-1.5,0.7-1.5,1.5s0.7,1.5,1.5,1.5S353,73.3,353,72.5z M363,2.5c0-0.8-0.7-1.5-1.5-1.5
	S360,1.6,360,2.5s0.7,1.5,1.5,1.5S363,3.3,363,2.5z M373,2.5c0-0.8-0.7-1.5-1.5-1.5S370,1.6,370,2.5s0.7,1.5,1.5,1.5
	S373,3.3,373,2.5z M383,2.5c0-0.8-0.7-1.5-1.5-1.5S380,1.6,380,2.5s0.7,1.5,1.5,1.5S383,3.3,383,2.5z M393,2.5
	c0-0.8-0.7-1.5-1.5-1.5S390,1.6,390,2.5s0.7,1.5,1.5,1.5S393,3.3,393,2.5z M403,2.5c0-0.8-0.7-1.5-1.5-1.5S400,1.6,400,2.5
	s0.7,1.5,1.5,1.5S403,3.3,403,2.5z M413,2.5c0-0.8-0.7-1.5-1.5-1.5S410,1.6,410,2.5s0.7,1.5,1.5,1.5S413,3.3,413,2.5z M423,2.5
	c0-0.8-0.7-1.5-1.5-1.5S420,1.6,420,2.5s0.7,1.5,1.5,1.5S423,3.3,423,2.5z M433,2.5c0-0.8-0.7-1.5-1.5-1.5S430,1.6,430,2.5
	s0.7,1.5,1.5,1.5S433,3.3,433,2.5z M443,2.5c0-0.8-0.7-1.5-1.5-1.5S440,1.6,440,2.5s0.7,1.5,1.5,1.5S443,3.3,443,2.5z M453,2.5
	c0-0.8-0.7-1.5-1.5-1.5S450,1.6,450,2.5s0.7,1.5,1.5,1.5S453,3.3,453,2.5z M463,2.5c0-0.8-0.7-1.5-1.5-1.5S460,1.6,460,2.5
	s0.7,1.5,1.5,1.5S463,3.3,463,2.5z M473,2.5c0-0.8-0.7-1.5-1.5-1.5S470,1.6,470,2.5s0.7,1.5,1.5,1.5S473,3.3,473,2.5z M363,12.5
	c0-0.8-0.7-1.5-1.5-1.5s-1.5,0.7-1.5,1.5s0.7,1.5,1.5,1.5S363,13.3,363,12.5z M373,12.5c0-0.8-0.7-1.5-1.5-1.5s-1.5,0.7-1.5,1.5
	s0.7,1.5,1.5,1.5S373,13.3,373,12.5z M383,12.5c0-0.8-0.7-1.5-1.5-1.5s-1.5,0.7-1.5,1.5s0.7,1.5,1.5,1.5S383,13.3,383,12.5z
	 M393,12.5c0-0.8-0.7-1.5-1.5-1.5s-1.5,0.7-1.5,1.5s0.7,1.5,1.5,1.5S393,13.3,393,12.5z M403,12.5c0-0.8-0.7-1.5-1.5-1.5
	s-1.5,0.7-1.5,1.5s0.7,1.5,1.5,1.5S403,13.3,403,12.5z M413,12.5c0-0.8-0.7-1.5-1.5-1.5s-1.5,0.7-1.5,1.5s0.7,1.5,1.5,1.5
	S413,13.3,413,12.5z M423,12.5c0-0.8-0.7-1.5-1.5-1.5s-1.5,0.7-1.5,1.5s0.7,1.5,1.5,1.5S423,13.3,423,12.5z M433,12.5
	c0-0.8-0.7-1.5-1.5-1.5s-1.5,0.7-1.5,1.5s0.7,1.5,1.5,1.5S433,13.3,433,12.5z M443,12.5c0-0.8-0.7-1.5-1.5-1.5s-1.5,0.7-1.5,1.5
	s0.7,1.5,1.5,1.5S443,13.3,443,12.5z M453,12.5c0-0.8-0.7-1.5-1.5-1.5s-1.5,0.7-1.5,1.5s0.7,1.5,1.5,1.5S453,13.3,453,12.5z
	 M463,12.5c0-0.8-0.7-1.5-1.5-1.5s-1.5,0.7-1.5,1.5s0.7,1.5,1.5,1.5S463,13.3,463,12.5z M473,12.5c0-0.8-0.7-1.5-1.5-1.5
	s-1.5,0.7-1.5,1.5s0.7,1.5,1.5,1.5S473,13.3,473,12.5z M363,22.5c0-0.8-0.7-1.5-1.5-1.5s-1.5,0.7-1.5,1.5s0.7,1.5,1.5,1.5
	S363,23.3,363,22.5z M373,22.5c0-0.8-0.7-1.5-1.5-1.5s-1.5,0.7-1.5,1.5s0.7,1.5,1.5,1.5S373,23.3,373,22.5z M383,22.5
	c0-0.8-0.7-1.5-1.5-1.5s-1.5,0.7-1.5,1.5s0.7,1.5,1.5,1.5S383,23.3,383,22.5z M393,22.5c0-0.8-0.7-1.5-1.5-1.5s-1.5,0.7-1.5,1.5
	s0.7,1.5,1.5,1.5S393,23.3,393,22.5z M403,22.5c0-0.8-0.7-1.5-1.5-1.5s-1.5,0.7-1.5,1.5s0.7,1.5,1.5,1.5S403,23.3,403,22.5z
	 M413,22.5c0-0.8-0.7-1.5-1.5-1.5s-1.5,0.7-1.5,1.5s0.7,1.5,1.5,1.5S413,23.3,413,22.5z M423,22.5c0-0.8-0.7-1.5-1.5-1.5
	s-1.5,0.7-1.5,1.5s0.7,1.5,1.5,1.5S423,23.3,423,22.5z M433,22.5c0-0.8-0.7-1.5-1.5-1.5s-1.5,0.7-1.5,1.5s0.7,1.5,1.5,1.5
	S433,23.3,433,22.5z M443,22.5c0-0.8-0.7-1.5-1.5-1.5s-1.5,0.7-1.5,1.5s0.7,1.5,1.5,1.5S443,23.3,443,22.5z M453,22.5
	c0-0.8-0.7-1.5-1.5-1.5s-1.5,0.7-1.5,1.5s0.7,1.5,1.5,1.5S453,23.3,453,22.5z M463,22.5c0-0.8-0.7-1.5-1.5-1.5s-1.5,0.7-1.5,1.5
	s0.7,1.5,1.5,1.5S463,23.3,463,22.5z M473,22.5c0-0.8-0.7-1.5-1.5-1.5s-1.5,0.7-1.5,1.5s0.7,1.5,1.5,1.5S473,23.3,473,22.5z
	 M363,32.5c0-0.8-0.7-1.5-1.5-1.5s-1.5,0.7-1.5,1.5c0,0.8,0.7,1.5,1.5,1.5S363,33.3,363,32.5z M373,32.5c0-0.8-0.7-1.5-1.5-1.5
	s-1.5,0.7-1.5,1.5c0,0.8,0.7,1.5,1.5,1.5S373,33.3,373,32.5z M383,32.5c0-0.8-0.7-1.5-1.5-1.5s-1.5,0.7-1.5,1.5
	c0,0.8,0.7,1.5,1.5,1.5S383,33.3,383,32.5z M393,32.5c0-0.8-0.7-1.5-1.5-1.5s-1.5,0.7-1.5,1.5c0,0.8,0.7,1.5,1.5,1.5
	S393,33.3,393,32.5z M403,32.5c0-0.8-0.7-1.5-1.5-1.5s-1.5,0.7-1.5,1.5c0,0.8,0.7,1.5,1.5,1.5S403,33.3,403,32.5z M413,32.5
	c0-0.8-0.7-1.5-1.5-1.5s-1.5,0.7-1.5,1.5c0,0.8,0.7,1.5,1.5,1.5S413,33.3,413,32.5z M423,32.5c0-0.8-0.7-1.5-1.5-1.5
	s-1.5,0.7-1.5,1.5c0,0.8,0.7,1.5,1.5,1.5S423,33.3,423,32.5z M433,32.5c0-0.8-0.7-1.5-1.5-1.5s-1.5,0.7-1.5,1.5
	c0,0.8,0.7,1.5,1.5,1.5S433,33.3,433,32.5z M443,32.5c0-0.8-0.7-1.5-1.5-1.5s-1.5,0.7-1.5,1.5c0,0.8,0.7,1.5,1.5,1.5
	S443,33.3,443,32.5z M453,32.5c0-0.8-0.7-1.5-1.5-1.5s-1.5,0.7-1.5,1.5c0,0.8,0.7,1.5,1.5,1.5S453,33.3,453,32.5z M463,32.5
	c0-0.8-0.7-1.5-1.5-1.5s-1.5,0.7-1.5,1.5c0,0.8,0.7,1.5,1.5,1.5S463,33.3,463,32.5z M473,32.5c0-0.8-0.7-1.5-1.5-1.5
	s-1.5,0.7-1.5,1.5c0,0.8,0.7,1.5,1.5,1.5S473,33.3,473,32.5z M363,42.5c0-0.8-0.7-1.5-1.5-1.5s-1.5,0.7-1.5,1.5s0.7,1.5,1.5,1.5
	S363,43.3,363,42.5z M373,42.5c0-0.8-0.7-1.5-1.5-1.5s-1.5,0.7-1.5,1.5s0.7,1.5,1.5,1.5S373,43.3,373,42.5z M383,42.5
	c0-0.8-0.7-1.5-1.5-1.5s-1.5,0.7-1.5,1.5s0.7,1.5,1.5,1.5S383,43.3,383,42.5z M393,42.5c0-0.8-0.7-1.5-1.5-1.5s-1.5,0.7-1.5,1.5
	s0.7,1.5,1.5,1.5S393,43.3,393,42.5z M403,42.5c0-0.8-0.7-1.5-1.5-1.5s-1.5,0.7-1.5,1.5s0.7,1.5,1.5,1.5S403,43.3,403,42.5z
	 M413,42.5c0-0.8-0.7-1.5-1.5-1.5s-1.5,0.7-1.5,1.5s0.7,1.5,1.5,1.5S413,43.3,413,42.5z M423,42.5c0-0.8-0.7-1.5-1.5-1.5
	s-1.5,0.7-1.5,1.5s0.7,1.5,1.5,1.5S423,43.3,423,42.5z M433,42.5c0-0.8-0.7-1.5-1.5-1.5s-1.5,0.7-1.5,1.5s0.7,1.5,1.5,1.5
	S433,43.3,433,42.5z M443,42.5c0-0.8-0.7-1.5-1.5-1.5s-1.5,0.7-1.5,1.5s0.7,1.5,1.5,1.5S443,43.3,443,42.5z M453,42.5
	c0-0.8-0.7-1.5-1.5-1.5s-1.5,0.7-1.5,1.5s0.7,1.5,1.5,1.5S453,43.3,453,42.5z M463,42.5c0-0.8-0.7-1.5-1.5-1.5s-1.5,0.7-1.5,1.5
	s0.7,1.5,1.5,1.5S463,43.3,463,42.5z M473,42.5c0-0.8-0.7-1.5-1.5-1.5s-1.5,0.7-1.5,1.5s0.7,1.5,1.5,1.5S473,43.3,473,42.5z
	 M363,52.5c0-0.8-0.7-1.5-1.5-1.5s-1.5,0.7-1.5,1.5s0.7,1.5,1.5,1.5S363,53.3,363,52.5z M373,52.5c0-0.8-0.7-1.5-1.5-1.5
	s-1.5,0.7-1.5,1.5s0.7,1.5,1.5,1.5S373,53.3,373,52.5z M383,52.5c0-0.8-0.7-1.5-1.5-1.5s-1.5,0.7-1.5,1.5s0.7,1.5,1.5,1.5
	S383,53.3,383,52.5z M393,52.5c0-0.8-0.7-1.5-1.5-1.5s-1.5,0.7-1.5,1.5s0.7,1.5,1.5,1.5S393,53.3,393,52.5z M403,52.5
	c0-0.8-0.7-1.5-1.5-1.5s-1.5,0.7-1.5,1.5s0.7,1.5,1.5,1.5S403,53.3,403,52.5z M413,52.5c0-0.8-0.7-1.5-1.5-1.5s-1.5,0.7-1.5,1.5
	s0.7,1.5,1.5,1.5S413,53.3,413,52.5z M423,52.5c0-0.8-0.7-1.5-1.5-1.5s-1.5,0.7-1.5,1.5s0.7,1.5,1.5,1.5S423,53.3,423,52.5z
	 M433,52.5c0-0.8-0.7-1.5-1.5-1.5s-1.5,0.7-1.5,1.5s0.7,1.5,1.5,1.5S433,53.3,433,52.5z M443,52.5c0-0.8-0.7-1.5-1.5-1.5
	s-1.5,0.7-1.5,1.5s0.7,1.5,1.5,1.5S443,53.3,443,52.5z M453,52.5c0-0.8-0.7-1.5-1.5-1.5s-1.5,0.7-1.5,1.5s0.7,1.5,1.5,1.5
	S453,53.3,453,52.5z M463,52.5c0-0.8-0.7-1.5-1.5-1.5s-1.5,0.7-1.5,1.5s0.7,1.5,1.5,1.5S463,53.3,463,52.5z M473,52.5
	c0-0.8-0.7-1.5-1.5-1.5s-1.5,0.7-1.5,1.5s0.7,1.5,1.5,1.5S473,53.3,473,52.5z M363,62.5c0-0.8-0.7-1.5-1.5-1.5s-1.5,0.7-1.5,1.5
	s0.7,1.5,1.5,1.5S363,63.3,363,62.5z M373,62.5c0-0.8-0.7-1.5-1.5-1.5s-1.5,0.7-1.5,1.5s0.7,1.5,1.5,1.5S373,63.3,373,62.5z
	 M383,62.5c0-0.8-0.7-1.5-1.5-1.5s-1.5,0.7-1.5,1.5s0.7,1.5,1.5,1.5S383,63.3,383,62.5z M393,62.5c0-0.8-0.7-1.5-1.5-1.5
	s-1.5,0.7-1.5,1.5s0.7,1.5,1.5,1.5S393,63.3,393,62.5z M403,62.5c0-0.8-0.7-1.5-1.5-1.5s-1.5,0.7-1.5,1.5s0.7,1.5,1.5,1.5
	S403,63.3,403,62.5z M413,62.5c0-0.8-0.7-1.5-1.5-1.5s-1.5,0.7-1.5,1.5s0.7,1.5,1.5,1.5S413,63.3,413,62.5z M423,62.5
	c0-0.8-0.7-1.5-1.5-1.5s-1.5,0.7-1.5,1.5s0.7,1.5,1.5,1.5S423,63.3,423,62.5z M433,62.5c0-0.8-0.7-1.5-1.5-1.5s-1.5,0.7-1.5,1.5
	s0.7,1.5,1.5,1.5S433,63.3,433,62.5z M443,62.5c0-0.8-0.7-1.5-1.5-1.5s-1.5,0.7-1.5,1.5s0.7,1.5,1.5,1.5S443,63.3,443,62.5z
	 M453,62.5c0-0.8-0.7-1.5-1.5-1.5s-1.5,0.7-1.5,1.5s0.7,1.5,1.5,1.5S453,63.3,453,62.5z M463,62.5c0-0.8-0.7-1.5-1.5-1.5
	s-1.5,0.7-1.5,1.5s0.7,1.5,1.5,1.5S463,63.3,463,62.5z M473,62.5c0-0.8-0.7-1.5-1.5-1.5s-1.5,0.7-1.5,1.5s0.7,1.5,1.5,1.5
	S473,63.3,473,62.5z M363,72.5c0-0.8-0.7-1.5-1.5-1.5s-1.5,0.7-1.5,1.5s0.7,1.5,1.5,1.5S363,73.3,363,72.5z M373,72.5
	c0-0.8-0.7-1.5-1.5-1.5s-1.5,0.7-1.5,1.5s0.7,1.5,1.5,1.5S373,73.3,373,72.5z M383,72.5c0-0.8-0.7-1.5-1.5-1.5s-1.5,0.7-1.5,1.5
	s0.7,1.5,1.5,1.5S383,73.3,383,72.5z M393,72.5c0-0.8-0.7-1.5-1.5-1.5s-1.5,0.7-1.5,1.5s0.7,1.5,1.5,1.5S393,73.3,393,72.5z
	 M403,72.5c0-0.8-0.7-1.5-1.5-1.5s-1.5,0.7-1.5,1.5s0.7,1.5,1.5,1.5S403,73.3,403,72.5z M413,72.5c0-0.8-0.7-1.5-1.5-1.5
	s-1.5,0.7-1.5,1.5s0.7,1.5,1.5,1.5S413,73.3,413,72.5z M423,72.5c0-0.8-0.7-1.5-1.5-1.5s-1.5,0.7-1.5,1.5s0.7,1.5,1.5,1.5
	S423,73.3,423,72.5z M433,72.5c0-0.8-0.7-1.5-1.5-1.5s-1.5,0.7-1.5,1.5s0.7,1.5,1.5,1.5S433,73.3,433,72.5z M443,72.5
	c0-0.8-0.7-1.5-1.5-1.5s-1.5,0.7-1.5,1.5s0.7,1.5,1.5,1.5S443,73.3,443,72.5z M453,72.5c0-0.8-0.7-1.5-1.5-1.5s-1.5,0.7-1.5,1.5
	s0.7,1.5,1.5,1.5S453,73.3,453,72.5z M463,72.5c0-0.8-0.7-1.5-1.5-1.5s-1.5,0.7-1.5,1.5s0.7,1.5,1.5,1.5S463,73.3,463,72.5z
	 M473,72.5c0-0.8-0.7-1.5-1.5-1.5s-1.5,0.7-1.5,1.5s0.7,1.5,1.5,1.5S473,73.3,473,72.5z M3,82.5C3,81.6,2.3,81,1.5,81S0,81.6,0,82.5
	S0.7,84,1.5,84S3,83.3,3,82.5z M13,82.5c0-0.8-0.7-1.5-1.5-1.5S10,81.6,10,82.5s0.7,1.5,1.5,1.5S13,83.3,13,82.5z M23,82.5
	c0-0.8-0.7-1.5-1.5-1.5S20,81.6,20,82.5s0.7,1.5,1.5,1.5S23,83.3,23,82.5z M33,82.5c0-0.8-0.7-1.5-1.5-1.5S30,81.6,30,82.5
	s0.7,1.5,1.5,1.5C32.3,84,33,83.3,33,82.5z M43,82.5c0-0.8-0.7-1.5-1.5-1.5S40,81.6,40,82.5s0.7,1.5,1.5,1.5S43,83.3,43,82.5z
	 M53,82.5c0-0.8-0.7-1.5-1.5-1.5S50,81.6,50,82.5s0.7,1.5,1.5,1.5S53,83.3,53,82.5z M63,82.5c0-0.8-0.7-1.5-1.5-1.5S60,81.6,60,82.5
	s0.7,1.5,1.5,1.5S63,83.3,63,82.5z M73,82.5c0-0.8-0.7-1.5-1.5-1.5S70,81.6,70,82.5s0.7,1.5,1.5,1.5S73,83.3,73,82.5z M83,82.5
	c0-0.8-0.7-1.5-1.5-1.5S80,81.6,80,82.5s0.7,1.5,1.5,1.5S83,83.3,83,82.5z M93,82.5c0-0.8-0.7-1.5-1.5-1.5S90,81.6,90,82.5
	s0.7,1.5,1.5,1.5S93,83.3,93,82.5z M103,82.5c0-0.8-0.7-1.5-1.5-1.5s-1.5,0.7-1.5,1.5s0.7,1.5,1.5,1.5S103,83.3,103,82.5z M113,82.5
	c0-0.8-0.7-1.5-1.5-1.5s-1.5,0.7-1.5,1.5s0.7,1.5,1.5,1.5S113,83.3,113,82.5z M3,92.5C3,91.6,2.3,91,1.5,91S0,91.6,0,92.5
	S0.7,94,1.5,94S3,93.3,3,92.5z M13,92.5c0-0.8-0.7-1.5-1.5-1.5S10,91.6,10,92.5s0.7,1.5,1.5,1.5S13,93.3,13,92.5z M23,92.5
	c0-0.8-0.7-1.5-1.5-1.5S20,91.6,20,92.5s0.7,1.5,1.5,1.5S23,93.3,23,92.5z M33,92.5c0-0.8-0.7-1.5-1.5-1.5S30,91.6,30,92.5
	s0.7,1.5,1.5,1.5C32.3,94,33,93.3,33,92.5z M43,92.5c0-0.8-0.7-1.5-1.5-1.5S40,91.6,40,92.5s0.7,1.5,1.5,1.5S43,93.3,43,92.5z
	 M53,92.5c0-0.8-0.7-1.5-1.5-1.5S50,91.6,50,92.5s0.7,1.5,1.5,1.5S53,93.3,53,92.5z M63,92.5c0-0.8-0.7-1.5-1.5-1.5S60,91.6,60,92.5
	s0.7,1.5,1.5,1.5S63,93.3,63,92.5z M73,92.5c0-0.8-0.7-1.5-1.5-1.5S70,91.6,70,92.5s0.7,1.5,1.5,1.5S73,93.3,73,92.5z M83,92.5
	c0-0.8-0.7-1.5-1.5-1.5S80,91.6,80,92.5s0.7,1.5,1.5,1.5S83,93.3,83,92.5z M93,92.5c0-0.8-0.7-1.5-1.5-1.5S90,91.6,90,92.5
	s0.7,1.5,1.5,1.5S93,93.3,93,92.5z M103,92.5c0-0.8-0.7-1.5-1.5-1.5s-1.5,0.7-1.5,1.5s0.7,1.5,1.5,1.5S103,93.3,103,92.5z M113,92.5
	c0-0.8-0.7-1.5-1.5-1.5s-1.5,0.7-1.5,1.5s0.7,1.5,1.5,1.5S113,93.3,113,92.5z M3,102.5c0-0.8-0.7-1.5-1.5-1.5S0,101.6,0,102.5
	s0.7,1.5,1.5,1.5S3,103.3,3,102.5z M13,102.5c0-0.8-0.7-1.5-1.5-1.5s-1.5,0.7-1.5,1.5s0.7,1.5,1.5,1.5S13,103.3,13,102.5z M23,102.5
	c0-0.8-0.7-1.5-1.5-1.5s-1.5,0.7-1.5,1.5s0.7,1.5,1.5,1.5S23,103.3,23,102.5z M33,102.5c0-0.8-0.7-1.5-1.5-1.5s-1.5,0.7-1.5,1.5
	s0.7,1.5,1.5,1.5C32.3,104,33,103.3,33,102.5z M43,102.5c0-0.8-0.7-1.5-1.5-1.5s-1.5,0.7-1.5,1.5s0.7,1.5,1.5,1.5S43,103.3,43,102.5
	z M53,102.5c0-0.8-0.7-1.5-1.5-1.5s-1.5,0.7-1.5,1.5s0.7,1.5,1.5,1.5S53,103.3,53,102.5z M63,102.5c0-0.8-0.7-1.5-1.5-1.5
	s-1.5,0.7-1.5,1.5s0.7,1.5,1.5,1.5S63,103.3,63,102.5z M73,102.5c0-0.8-0.7-1.5-1.5-1.5s-1.5,0.7-1.5,1.5s0.7,1.5,1.5,1.5
	S73,103.3,73,102.5z M83,102.5c0-0.8-0.7-1.5-1.5-1.5s-1.5,0.7-1.5,1.5s0.7,1.5,1.5,1.5S83,103.3,83,102.5z M93,102.5
	c0-0.8-0.7-1.5-1.5-1.5s-1.5,0.7-1.5,1.5s0.7,1.5,1.5,1.5S93,103.3,93,102.5z M103,102.5c0-0.8-0.7-1.5-1.5-1.5s-1.5,0.7-1.5,1.5
	s0.7,1.5,1.5,1.5S103,103.3,103,102.5z M113,102.5c0-0.8-0.7-1.5-1.5-1.5s-1.5,0.7-1.5,1.5s0.7,1.5,1.5,1.5S113,103.3,113,102.5z
	 M3,112.5c0-0.8-0.7-1.5-1.5-1.5S0,111.6,0,112.5s0.7,1.5,1.5,1.5S3,113.3,3,112.5z M13,112.5c0-0.8-0.7-1.5-1.5-1.5
	s-1.5,0.7-1.5,1.5s0.7,1.5,1.5,1.5S13,113.3,13,112.5z M23,112.5c0-0.8-0.7-1.5-1.5-1.5s-1.5,0.7-1.5,1.5s0.7,1.5,1.5,1.5
	S23,113.3,23,112.5z M33,112.5c0-0.8-0.7-1.5-1.5-1.5s-1.5,0.7-1.5,1.5s0.7,1.5,1.5,1.5C32.3,114,33,113.3,33,112.5z M43,112.5
	c0-0.8-0.7-1.5-1.5-1.5s-1.5,0.7-1.5,1.5s0.7,1.5,1.5,1.5S43,113.3,43,112.5z M53,112.5c0-0.8-0.7-1.5-1.5-1.5s-1.5,0.7-1.5,1.5
	s0.7,1.5,1.5,1.5S53,113.3,53,112.5z M63,112.5c0-0.8-0.7-1.5-1.5-1.5s-1.5,0.7-1.5,1.5s0.7,1.5,1.5,1.5S63,113.3,63,112.5z
	 M73,112.5c0-0.8-0.7-1.5-1.5-1.5s-1.5,0.7-1.5,1.5s0.7,1.5,1.5,1.5S73,113.3,73,112.5z M83,112.5c0-0.8-0.7-1.5-1.5-1.5
	s-1.5,0.7-1.5,1.5s0.7,1.5,1.5,1.5S83,113.3,83,112.5z M93,112.5c0-0.8-0.7-1.5-1.5-1.5s-1.5,0.7-1.5,1.5s0.7,1.5,1.5,1.5
	S93,113.3,93,112.5z M103,112.5c0-0.8-0.7-1.5-1.5-1.5s-1.5,0.7-1.5,1.5s0.7,1.5,1.5,1.5S103,113.3,103,112.5z M113,112.5
	c0-0.8-0.7-1.5-1.5-1.5s-1.5,0.7-1.5,1.5s0.7,1.5,1.5,1.5S113,113.3,113,112.5z M3,122.5c0-0.8-0.7-1.5-1.5-1.5S0,121.6,0,122.5
	s0.7,1.5,1.5,1.5S3,123.3,3,122.5z M13,122.5c0-0.8-0.7-1.5-1.5-1.5s-1.5,0.7-1.5,1.5s0.7,1.5,1.5,1.5S13,123.3,13,122.5z M23,122.5
	c0-0.8-0.7-1.5-1.5-1.5s-1.5,0.7-1.5,1.5s0.7,1.5,1.5,1.5S23,123.3,23,122.5z M33,122.5c0-0.8-0.7-1.5-1.5-1.5s-1.5,0.7-1.5,1.5
	s0.7,1.5,1.5,1.5C32.3,124,33,123.3,33,122.5z M43,122.5c0-0.8-0.7-1.5-1.5-1.5s-1.5,0.7-1.5,1.5s0.7,1.5,1.5,1.5S43,123.3,43,122.5
	z M53,122.5c0-0.8-0.7-1.5-1.5-1.5s-1.5,0.7-1.5,1.5s0.7,1.5,1.5,1.5S53,123.3,53,122.5z M63,122.5c0-0.8-0.7-1.5-1.5-1.5
	s-1.5,0.7-1.5,1.5s0.7,1.5,1.5,1.5S63,123.3,63,122.5z M73,122.5c0-0.8-0.7-1.5-1.5-1.5s-1.5,0.7-1.5,1.5s0.7,1.5,1.5,1.5
	S73,123.3,73,122.5z M83,122.5c0-0.8-0.7-1.5-1.5-1.5s-1.5,0.7-1.5,1.5s0.7,1.5,1.5,1.5S83,123.3,83,122.5z M93,122.5
	c0-0.8-0.7-1.5-1.5-1.5s-1.5,0.7-1.5,1.5s0.7,1.5,1.5,1.5S93,123.3,93,122.5z M103,122.5c0-0.8-0.7-1.5-1.5-1.5s-1.5,0.7-1.5,1.5
	s0.7,1.5,1.5,1.5S103,123.3,103,122.5z M113,122.5c0-0.8-0.7-1.5-1.5-1.5s-1.5,0.7-1.5,1.5s0.7,1.5,1.5,1.5S113,123.3,113,122.5z
	 M3,132.5c0-0.8-0.7-1.5-1.5-1.5S0,131.6,0,132.5s0.7,1.5,1.5,1.5S3,133.3,3,132.5z M13,132.5c0-0.8-0.7-1.5-1.5-1.5
	s-1.5,0.7-1.5,1.5s0.7,1.5,1.5,1.5S13,133.3,13,132.5z M23,132.5c0-0.8-0.7-1.5-1.5-1.5s-1.5,0.7-1.5,1.5s0.7,1.5,1.5,1.5
	S23,133.3,23,132.5z M33,132.5c0-0.8-0.7-1.5-1.5-1.5s-1.5,0.7-1.5,1.5s0.7,1.5,1.5,1.5C32.3,134,33,133.3,33,132.5z M43,132.5
	c0-0.8-0.7-1.5-1.5-1.5s-1.5,0.7-1.5,1.5s0.7,1.5,1.5,1.5S43,133.3,43,132.5z M53,132.5c0-0.8-0.7-1.5-1.5-1.5s-1.5,0.7-1.5,1.5
	s0.7,1.5,1.5,1.5S53,133.3,53,132.5z M63,132.5c0-0.8-0.7-1.5-1.5-1.5s-1.5,0.7-1.5,1.5s0.7,1.5,1.5,1.5S63,133.3,63,132.5z
	 M73,132.5c0-0.8-0.7-1.5-1.5-1.5s-1.5,0.7-1.5,1.5s0.7,1.5,1.5,1.5S73,133.3,73,132.5z M83,132.5c0-0.8-0.7-1.5-1.5-1.5
	s-1.5,0.7-1.5,1.5s0.7,1.5,1.5,1.5S83,133.3,83,132.5z M93,132.5c0-0.8-0.7-1.5-1.5-1.5s-1.5,0.7-1.5,1.5s0.7,1.5,1.5,1.5
	S93,133.3,93,132.5z M103,132.5c0-0.8-0.7-1.5-1.5-1.5s-1.5,0.7-1.5,1.5s0.7,1.5,1.5,1.5S103,133.3,103,132.5z M113,132.5
	c0-0.8-0.7-1.5-1.5-1.5s-1.5,0.7-1.5,1.5s0.7,1.5,1.5,1.5S113,133.3,113,132.5z M3,142.5c0-0.8-0.7-1.5-1.5-1.5S0,141.6,0,142.5
	s0.7,1.5,1.5,1.5S3,143.3,3,142.5z M13,142.5c0-0.8-0.7-1.5-1.5-1.5s-1.5,0.7-1.5,1.5s0.7,1.5,1.5,1.5S13,143.3,13,142.5z M23,142.5
	c0-0.8-0.7-1.5-1.5-1.5s-1.5,0.7-1.5,1.5s0.7,1.5,1.5,1.5S23,143.3,23,142.5z M33,142.5c0-0.8-0.7-1.5-1.5-1.5s-1.5,0.7-1.5,1.5
	s0.7,1.5,1.5,1.5C32.3,144,33,143.3,33,142.5z M43,142.5c0-0.8-0.7-1.5-1.5-1.5s-1.5,0.7-1.5,1.5s0.7,1.5,1.5,1.5S43,143.3,43,142.5
	z M53,142.5c0-0.8-0.7-1.5-1.5-1.5s-1.5,0.7-1.5,1.5s0.7,1.5,1.5,1.5S53,143.3,53,142.5z M63,142.5c0-0.8-0.7-1.5-1.5-1.5
	s-1.5,0.7-1.5,1.5s0.7,1.5,1.5,1.5S63,143.3,63,142.5z M73,142.5c0-0.8-0.7-1.5-1.5-1.5s-1.5,0.7-1.5,1.5s0.7,1.5,1.5,1.5
	S73,143.3,73,142.5z M83,142.5c0-0.8-0.7-1.5-1.5-1.5s-1.5,0.7-1.5,1.5s0.7,1.5,1.5,1.5S83,143.3,83,142.5z M93,142.5
	c0-0.8-0.7-1.5-1.5-1.5s-1.5,0.7-1.5,1.5s0.7,1.5,1.5,1.5S93,143.3,93,142.5z M103,142.5c0-0.8-0.7-1.5-1.5-1.5s-1.5,0.7-1.5,1.5
	s0.7,1.5,1.5,1.5S103,143.3,103,142.5z M113,142.5c0-0.8-0.7-1.5-1.5-1.5s-1.5,0.7-1.5,1.5s0.7,1.5,1.5,1.5S113,143.3,113,142.5z
	 M3,152.5c0-0.8-0.7-1.5-1.5-1.5S0,151.6,0,152.5s0.7,1.5,1.5,1.5S3,153.3,3,152.5z M13,152.5c0-0.8-0.7-1.5-1.5-1.5
	s-1.5,0.7-1.5,1.5s0.7,1.5,1.5,1.5S13,153.3,13,152.5z M23,152.5c0-0.8-0.7-1.5-1.5-1.5s-1.5,0.7-1.5,1.5s0.7,1.5,1.5,1.5
	S23,153.3,23,152.5z M33,152.5c0-0.8-0.7-1.5-1.5-1.5s-1.5,0.7-1.5,1.5s0.7,1.5,1.5,1.5C32.3,154,33,153.3,33,152.5z M43,152.5
	c0-0.8-0.7-1.5-1.5-1.5s-1.5,0.7-1.5,1.5s0.7,1.5,1.5,1.5S43,153.3,43,152.5z M53,152.5c0-0.8-0.7-1.5-1.5-1.5s-1.5,0.7-1.5,1.5
	s0.7,1.5,1.5,1.5S53,153.3,53,152.5z M63,152.5c0-0.8-0.7-1.5-1.5-1.5s-1.5,0.7-1.5,1.5s0.7,1.5,1.5,1.5S63,153.3,63,152.5z
	 M73,152.5c0-0.8-0.7-1.5-1.5-1.5s-1.5,0.7-1.5,1.5s0.7,1.5,1.5,1.5S73,153.3,73,152.5z M83,152.5c0-0.8-0.7-1.5-1.5-1.5
	s-1.5,0.7-1.5,1.5s0.7,1.5,1.5,1.5S83,153.3,83,152.5z M93,152.5c0-0.8-0.7-1.5-1.5-1.5s-1.5,0.7-1.5,1.5s0.7,1.5,1.5,1.5
	S93,153.3,93,152.5z M103,152.5c0-0.8-0.7-1.5-1.5-1.5s-1.5,0.7-1.5,1.5s0.7,1.5,1.5,1.5S103,153.3,103,152.5z M113,152.5
	c0-0.8-0.7-1.5-1.5-1.5s-1.5,0.7-1.5,1.5s0.7,1.5,1.5,1.5S113,153.3,113,152.5z M123,82.5c0-0.8-0.7-1.5-1.5-1.5s-1.5,0.7-1.5,1.5
	s0.7,1.5,1.5,1.5S123,83.3,123,82.5z M133,82.5c0-0.8-0.7-1.5-1.5-1.5s-1.5,0.7-1.5,1.5s0.7,1.5,1.5,1.5S133,83.3,133,82.5z
	 M143,82.5c0-0.8-0.7-1.5-1.5-1.5s-1.5,0.7-1.5,1.5s0.7,1.5,1.5,1.5S143,83.3,143,82.5z M153,82.5c0-0.8-0.7-1.5-1.5-1.5
	s-1.5,0.7-1.5,1.5s0.7,1.5,1.5,1.5S153,83.3,153,82.5z M163,82.5c0-0.8-0.7-1.5-1.5-1.5s-1.5,0.7-1.5,1.5s0.7,1.5,1.5,1.5
	S163,83.3,163,82.5z M173,82.5c0-0.8-0.7-1.5-1.5-1.5s-1.5,0.7-1.5,1.5s0.7,1.5,1.5,1.5S173,83.3,173,82.5z M183,82.5
	c0-0.8-0.7-1.5-1.5-1.5s-1.5,0.7-1.5,1.5s0.7,1.5,1.5,1.5S183,83.3,183,82.5z M193,82.5c0-0.8-0.7-1.5-1.5-1.5s-1.5,0.7-1.5,1.5
	s0.7,1.5,1.5,1.5S193,83.3,193,82.5z M203,82.5c0-0.8-0.7-1.5-1.5-1.5s-1.5,0.7-1.5,1.5s0.7,1.5,1.5,1.5S203,83.3,203,82.5z
	 M213,82.5c0-0.8-0.7-1.5-1.5-1.5s-1.5,0.7-1.5,1.5s0.7,1.5,1.5,1.5S213,83.3,213,82.5z M223,82.5c0-0.8-0.7-1.5-1.5-1.5
	s-1.5,0.7-1.5,1.5s0.7,1.5,1.5,1.5S223,83.3,223,82.5z M233,82.5c0-0.8-0.7-1.5-1.5-1.5s-1.5,0.7-1.5,1.5s0.7,1.5,1.5,1.5
	S233,83.3,233,82.5z M123,92.5c0-0.8-0.7-1.5-1.5-1.5s-1.5,0.7-1.5,1.5s0.7,1.5,1.5,1.5S123,93.3,123,92.5z M133,92.5
	c0-0.8-0.7-1.5-1.5-1.5s-1.5,0.7-1.5,1.5s0.7,1.5,1.5,1.5S133,93.3,133,92.5z M143,92.5c0-0.8-0.7-1.5-1.5-1.5s-1.5,0.7-1.5,1.5
	s0.7,1.5,1.5,1.5S143,93.3,143,92.5z M153,92.5c0-0.8-0.7-1.5-1.5-1.5s-1.5,0.7-1.5,1.5s0.7,1.5,1.5,1.5S153,93.3,153,92.5z
	 M163,92.5c0-0.8-0.7-1.5-1.5-1.5s-1.5,0.7-1.5,1.5s0.7,1.5,1.5,1.5S163,93.3,163,92.5z M173,92.5c0-0.8-0.7-1.5-1.5-1.5
	s-1.5,0.7-1.5,1.5s0.7,1.5,1.5,1.5S173,93.3,173,92.5z M183,92.5c0-0.8-0.7-1.5-1.5-1.5s-1.5,0.7-1.5,1.5s0.7,1.5,1.5,1.5
	S183,93.3,183,92.5z M193,92.5c0-0.8-0.7-1.5-1.5-1.5s-1.5,0.7-1.5,1.5s0.7,1.5,1.5,1.5S193,93.3,193,92.5z M203,92.5
	c0-0.8-0.7-1.5-1.5-1.5s-1.5,0.7-1.5,1.5s0.7,1.5,1.5,1.5S203,93.3,203,92.5z M213,92.5c0-0.8-0.7-1.5-1.5-1.5s-1.5,0.7-1.5,1.5
	s0.7,1.5,1.5,1.5S213,93.3,213,92.5z M223,92.5c0-0.8-0.7-1.5-1.5-1.5s-1.5,0.7-1.5,1.5s0.7,1.5,1.5,1.5S223,93.3,223,92.5z
	 M233,92.5c0-0.8-0.7-1.5-1.5-1.5s-1.5,0.7-1.5,1.5s0.7,1.5,1.5,1.5S233,93.3,233,92.5z M123,102.5c0-0.8-0.7-1.5-1.5-1.5
	s-1.5,0.7-1.5,1.5s0.7,1.5,1.5,1.5S123,103.3,123,102.5z M133,102.5c0-0.8-0.7-1.5-1.5-1.5s-1.5,0.7-1.5,1.5s0.7,1.5,1.5,1.5
	S133,103.3,133,102.5z M143,102.5c0-0.8-0.7-1.5-1.5-1.5s-1.5,0.7-1.5,1.5s0.7,1.5,1.5,1.5S143,103.3,143,102.5z M153,102.5
	c0-0.8-0.7-1.5-1.5-1.5s-1.5,0.7-1.5,1.5s0.7,1.5,1.5,1.5S153,103.3,153,102.5z M163,102.5c0-0.8-0.7-1.5-1.5-1.5s-1.5,0.7-1.5,1.5
	s0.7,1.5,1.5,1.5S163,103.3,163,102.5z M173,102.5c0-0.8-0.7-1.5-1.5-1.5s-1.5,0.7-1.5,1.5s0.7,1.5,1.5,1.5S173,103.3,173,102.5z
	 M183,102.5c0-0.8-0.7-1.5-1.5-1.5s-1.5,0.7-1.5,1.5s0.7,1.5,1.5,1.5S183,103.3,183,102.5z M193,102.5c0-0.8-0.7-1.5-1.5-1.5
	s-1.5,0.7-1.5,1.5s0.7,1.5,1.5,1.5S193,103.3,193,102.5z M203,102.5c0-0.8-0.7-1.5-1.5-1.5s-1.5,0.7-1.5,1.5s0.7,1.5,1.5,1.5
	S203,103.3,203,102.5z M213,102.5c0-0.8-0.7-1.5-1.5-1.5s-1.5,0.7-1.5,1.5s0.7,1.5,1.5,1.5S213,103.3,213,102.5z M223,102.5
	c0-0.8-0.7-1.5-1.5-1.5s-1.5,0.7-1.5,1.5s0.7,1.5,1.5,1.5S223,103.3,223,102.5z M233,102.5c0-0.8-0.7-1.5-1.5-1.5s-1.5,0.7-1.5,1.5
	s0.7,1.5,1.5,1.5S233,103.3,233,102.5z M123,112.5c0-0.8-0.7-1.5-1.5-1.5s-1.5,0.7-1.5,1.5s0.7,1.5,1.5,1.5S123,113.3,123,112.5z
	 M133,112.5c0-0.8-0.7-1.5-1.5-1.5s-1.5,0.7-1.5,1.5s0.7,1.5,1.5,1.5S133,113.3,133,112.5z M143,112.5c0-0.8-0.7-1.5-1.5-1.5
	s-1.5,0.7-1.5,1.5s0.7,1.5,1.5,1.5S143,113.3,143,112.5z M153,112.5c0-0.8-0.7-1.5-1.5-1.5s-1.5,0.7-1.5,1.5s0.7,1.5,1.5,1.5
	S153,113.3,153,112.5z M163,112.5c0-0.8-0.7-1.5-1.5-1.5s-1.5,0.7-1.5,1.5s0.7,1.5,1.5,1.5S163,113.3,163,112.5z M173,112.5
	c0-0.8-0.7-1.5-1.5-1.5s-1.5,0.7-1.5,1.5s0.7,1.5,1.5,1.5S173,113.3,173,112.5z M183,112.5c0-0.8-0.7-1.5-1.5-1.5s-1.5,0.7-1.5,1.5
	s0.7,1.5,1.5,1.5S183,113.3,183,112.5z M193,112.5c0-0.8-0.7-1.5-1.5-1.5s-1.5,0.7-1.5,1.5s0.7,1.5,1.5,1.5S193,113.3,193,112.5z
	 M203,112.5c0-0.8-0.7-1.5-1.5-1.5s-1.5,0.7-1.5,1.5s0.7,1.5,1.5,1.5S203,113.3,203,112.5z M213,112.5c0-0.8-0.7-1.5-1.5-1.5
	s-1.5,0.7-1.5,1.5s0.7,1.5,1.5,1.5S213,113.3,213,112.5z M223,112.5c0-0.8-0.7-1.5-1.5-1.5s-1.5,0.7-1.5,1.5s0.7,1.5,1.5,1.5
	S223,113.3,223,112.5z M233,112.5c0-0.8-0.7-1.5-1.5-1.5s-1.5,0.7-1.5,1.5s0.7,1.5,1.5,1.5S233,113.3,233,112.5z M123,122.5
	c0-0.8-0.7-1.5-1.5-1.5s-1.5,0.7-1.5,1.5s0.7,1.5,1.5,1.5S123,123.3,123,122.5z M133,122.5c0-0.8-0.7-1.5-1.5-1.5s-1.5,0.7-1.5,1.5
	s0.7,1.5,1.5,1.5S133,123.3,133,122.5z M143,122.5c0-0.8-0.7-1.5-1.5-1.5s-1.5,0.7-1.5,1.5s0.7,1.5,1.5,1.5S143,123.3,143,122.5z
	 M153,122.5c0-0.8-0.7-1.5-1.5-1.5s-1.5,0.7-1.5,1.5s0.7,1.5,1.5,1.5S153,123.3,153,122.5z M163,122.5c0-0.8-0.7-1.5-1.5-1.5
	s-1.5,0.7-1.5,1.5s0.7,1.5,1.5,1.5S163,123.3,163,122.5z M173,122.5c0-0.8-0.7-1.5-1.5-1.5s-1.5,0.7-1.5,1.5s0.7,1.5,1.5,1.5
	S173,123.3,173,122.5z M183,122.5c0-0.8-0.7-1.5-1.5-1.5s-1.5,0.7-1.5,1.5s0.7,1.5,1.5,1.5S183,123.3,183,122.5z M193,122.5
	c0-0.8-0.7-1.5-1.5-1.5s-1.5,0.7-1.5,1.5s0.7,1.5,1.5,1.5S193,123.3,193,122.5z M203,122.5c0-0.8-0.7-1.5-1.5-1.5s-1.5,0.7-1.5,1.5
	s0.7,1.5,1.5,1.5S203,123.3,203,122.5z M213,122.5c0-0.8-0.7-1.5-1.5-1.5s-1.5,0.7-1.5,1.5s0.7,1.5,1.5,1.5S213,123.3,213,122.5z
	 M223,122.5c0-0.8-0.7-1.5-1.5-1.5s-1.5,0.7-1.5,1.5s0.7,1.5,1.5,1.5S223,123.3,223,122.5z M233,122.5c0-0.8-0.7-1.5-1.5-1.5
	s-1.5,0.7-1.5,1.5s0.7,1.5,1.5,1.5S233,123.3,233,122.5z M123,132.5c0-0.8-0.7-1.5-1.5-1.5s-1.5,0.7-1.5,1.5s0.7,1.5,1.5,1.5
	S123,133.3,123,132.5z M133,132.5c0-0.8-0.7-1.5-1.5-1.5s-1.5,0.7-1.5,1.5s0.7,1.5,1.5,1.5S133,133.3,133,132.5z M143,132.5
	c0-0.8-0.7-1.5-1.5-1.5s-1.5,0.7-1.5,1.5s0.7,1.5,1.5,1.5S143,133.3,143,132.5z M153,132.5c0-0.8-0.7-1.5-1.5-1.5s-1.5,0.7-1.5,1.5
	s0.7,1.5,1.5,1.5S153,133.3,153,132.5z M163,132.5c0-0.8-0.7-1.5-1.5-1.5s-1.5,0.7-1.5,1.5s0.7,1.5,1.5,1.5S163,133.3,163,132.5z
	 M173,132.5c0-0.8-0.7-1.5-1.5-1.5s-1.5,0.7-1.5,1.5s0.7,1.5,1.5,1.5S173,133.3,173,132.5z M183,132.5c0-0.8-0.7-1.5-1.5-1.5
	s-1.5,0.7-1.5,1.5s0.7,1.5,1.5,1.5S183,133.3,183,132.5z M193,132.5c0-0.8-0.7-1.5-1.5-1.5s-1.5,0.7-1.5,1.5s0.7,1.5,1.5,1.5
	S193,133.3,193,132.5z M203,132.5c0-0.8-0.7-1.5-1.5-1.5s-1.5,0.7-1.5,1.5s0.7,1.5,1.5,1.5S203,133.3,203,132.5z M213,132.5
	c0-0.8-0.7-1.5-1.5-1.5s-1.5,0.7-1.5,1.5s0.7,1.5,1.5,1.5S213,133.3,213,132.5z M223,132.5c0-0.8-0.7-1.5-1.5-1.5s-1.5,0.7-1.5,1.5
	s0.7,1.5,1.5,1.5S223,133.3,223,132.5z M233,132.5c0-0.8-0.7-1.5-1.5-1.5s-1.5,0.7-1.5,1.5s0.7,1.5,1.5,1.5S233,133.3,233,132.5z
	 M123,142.5c0-0.8-0.7-1.5-1.5-1.5s-1.5,0.7-1.5,1.5s0.7,1.5,1.5,1.5S123,143.3,123,142.5z M133,142.5c0-0.8-0.7-1.5-1.5-1.5
	s-1.5,0.7-1.5,1.5s0.7,1.5,1.5,1.5S133,143.3,133,142.5z M143,142.5c0-0.8-0.7-1.5-1.5-1.5s-1.5,0.7-1.5,1.5s0.7,1.5,1.5,1.5
	S143,143.3,143,142.5z M153,142.5c0-0.8-0.7-1.5-1.5-1.5s-1.5,0.7-1.5,1.5s0.7,1.5,1.5,1.5S153,143.3,153,142.5z M163,142.5
	c0-0.8-0.7-1.5-1.5-1.5s-1.5,0.7-1.5,1.5s0.7,1.5,1.5,1.5S163,143.3,163,142.5z M173,142.5c0-0.8-0.7-1.5-1.5-1.5s-1.5,0.7-1.5,1.5
	s0.7,1.5,1.5,1.5S173,143.3,173,142.5z M183,142.5c0-0.8-0.7-1.5-1.5-1.5s-1.5,0.7-1.5,1.5s0.7,1.5,1.5,1.5S183,143.3,183,142.5z
	 M193,142.5c0-0.8-0.7-1.5-1.5-1.5s-1.5,0.7-1.5,1.5s0.7,1.5,1.5,1.5S193,143.3,193,142.5z M203,142.5c0-0.8-0.7-1.5-1.5-1.5
	s-1.5,0.7-1.5,1.5s0.7,1.5,1.5,1.5S203,143.3,203,142.5z M213,142.5c0-0.8-0.7-1.5-1.5-1.5s-1.5,0.7-1.5,1.5s0.7,1.5,1.5,1.5
	S213,143.3,213,142.5z M223,142.5c0-0.8-0.7-1.5-1.5-1.5s-1.5,0.7-1.5,1.5s0.7,1.5,1.5,1.5S223,143.3,223,142.5z M233,142.5
	c0-0.8-0.7-1.5-1.5-1.5s-1.5,0.7-1.5,1.5s0.7,1.5,1.5,1.5S233,143.3,233,142.5z M123,152.5c0-0.8-0.7-1.5-1.5-1.5s-1.5,0.7-1.5,1.5
	s0.7,1.5,1.5,1.5S123,153.3,123,152.5z M133,152.5c0-0.8-0.7-1.5-1.5-1.5s-1.5,0.7-1.5,1.5s0.7,1.5,1.5,1.5S133,153.3,133,152.5z
	 M143,152.5c0-0.8-0.7-1.5-1.5-1.5s-1.5,0.7-1.5,1.5s0.7,1.5,1.5,1.5S143,153.3,143,152.5z M153,152.5c0-0.8-0.7-1.5-1.5-1.5
	s-1.5,0.7-1.5,1.5s0.7,1.5,1.5,1.5S153,153.3,153,152.5z M163,152.5c0-0.8-0.7-1.5-1.5-1.5s-1.5,0.7-1.5,1.5s0.7,1.5,1.5,1.5
	S163,153.3,163,152.5z M173,152.5c0-0.8-0.7-1.5-1.5-1.5s-1.5,0.7-1.5,1.5s0.7,1.5,1.5,1.5S173,153.3,173,152.5z M183,152.5
	c0-0.8-0.7-1.5-1.5-1.5s-1.5,0.7-1.5,1.5s0.7,1.5,1.5,1.5S183,153.3,183,152.5z M193,152.5c0-0.8-0.7-1.5-1.5-1.5s-1.5,0.7-1.5,1.5
	s0.7,1.5,1.5,1.5S193,153.3,193,152.5z M203,152.5c0-0.8-0.7-1.5-1.5-1.5s-1.5,0.7-1.5,1.5s0.7,1.5,1.5,1.5S203,153.3,203,152.5z
	 M213,152.5c0-0.8-0.7-1.5-1.5-1.5s-1.5,0.7-1.5,1.5s0.7,1.5,1.5,1.5S213,153.3,213,152.5z M223,152.5c0-0.8-0.7-1.5-1.5-1.5
	s-1.5,0.7-1.5,1.5s0.7,1.5,1.5,1.5S223,153.3,223,152.5z M233,152.5c0-0.8-0.7-1.5-1.5-1.5s-1.5,0.7-1.5,1.5s0.7,1.5,1.5,1.5
	S233,153.3,233,152.5z M243,82.5c0-0.8-0.7-1.5-1.5-1.5s-1.5,0.7-1.5,1.5s0.7,1.5,1.5,1.5S243,83.3,243,82.5z M253,82.5
	c0-0.8-0.7-1.5-1.5-1.5s-1.5,0.7-1.5,1.5s0.7,1.5,1.5,1.5S253,83.3,253,82.5z M263,82.5c0-0.8-0.7-1.5-1.5-1.5s-1.5,0.7-1.5,1.5
	s0.7,1.5,1.5,1.5S263,83.3,263,82.5z M273,82.5c0-0.8-0.7-1.5-1.5-1.5s-1.5,0.7-1.5,1.5s0.7,1.5,1.5,1.5S273,83.3,273,82.5z
	 M283,82.5c0-0.8-0.7-1.5-1.5-1.5s-1.5,0.7-1.5,1.5s0.7,1.5,1.5,1.5S283,83.3,283,82.5z M293,82.5c0-0.8-0.7-1.5-1.5-1.5
	s-1.5,0.7-1.5,1.5s0.7,1.5,1.5,1.5S293,83.3,293,82.5z M303,82.5c0-0.8-0.7-1.5-1.5-1.5s-1.5,0.7-1.5,1.5s0.7,1.5,1.5,1.5
	S303,83.3,303,82.5z M313,82.5c0-0.8-0.7-1.5-1.5-1.5s-1.5,0.7-1.5,1.5s0.7,1.5,1.5,1.5S313,83.3,313,82.5z M323,82.5
	c0-0.8-0.7-1.5-1.5-1.5s-1.5,0.7-1.5,1.5s0.7,1.5,1.5,1.5S323,83.3,323,82.5z M333,82.5c0-0.8-0.7-1.5-1.5-1.5s-1.5,0.7-1.5,1.5
	s0.7,1.5,1.5,1.5S333,83.3,333,82.5z M343,82.5c0-0.8-0.7-1.5-1.5-1.5s-1.5,0.7-1.5,1.5s0.7,1.5,1.5,1.5S343,83.3,343,82.5z
	 M353,82.5c0-0.8-0.7-1.5-1.5-1.5s-1.5,0.7-1.5,1.5s0.7,1.5,1.5,1.5S353,83.3,353,82.5z M243,92.5c0-0.8-0.7-1.5-1.5-1.5
	s-1.5,0.7-1.5,1.5s0.7,1.5,1.5,1.5S243,93.3,243,92.5z M253,92.5c0-0.8-0.7-1.5-1.5-1.5s-1.5,0.7-1.5,1.5s0.7,1.5,1.5,1.5
	S253,93.3,253,92.5z M263,92.5c0-0.8-0.7-1.5-1.5-1.5s-1.5,0.7-1.5,1.5s0.7,1.5,1.5,1.5S263,93.3,263,92.5z M273,92.5
	c0-0.8-0.7-1.5-1.5-1.5s-1.5,0.7-1.5,1.5s0.7,1.5,1.5,1.5S273,93.3,273,92.5z M283,92.5c0-0.8-0.7-1.5-1.5-1.5s-1.5,0.7-1.5,1.5
	s0.7,1.5,1.5,1.5S283,93.3,283,92.5z M293,92.5c0-0.8-0.7-1.5-1.5-1.5s-1.5,0.7-1.5,1.5s0.7,1.5,1.5,1.5S293,93.3,293,92.5z
	 M303,92.5c0-0.8-0.7-1.5-1.5-1.5s-1.5,0.7-1.5,1.5s0.7,1.5,1.5,1.5S303,93.3,303,92.5z M313,92.5c0-0.8-0.7-1.5-1.5-1.5
	s-1.5,0.7-1.5,1.5s0.7,1.5,1.5,1.5S313,93.3,313,92.5z M323,92.5c0-0.8-0.7-1.5-1.5-1.5s-1.5,0.7-1.5,1.5s0.7,1.5,1.5,1.5
	S323,93.3,323,92.5z M333,92.5c0-0.8-0.7-1.5-1.5-1.5s-1.5,0.7-1.5,1.5s0.7,1.5,1.5,1.5S333,93.3,333,92.5z M343,92.5
	c0-0.8-0.7-1.5-1.5-1.5s-1.5,0.7-1.5,1.5s0.7,1.5,1.5,1.5S343,93.3,343,92.5z M353,92.5c0-0.8-0.7-1.5-1.5-1.5s-1.5,0.7-1.5,1.5
	s0.7,1.5,1.5,1.5S353,93.3,353,92.5z M243,102.5c0-0.8-0.7-1.5-1.5-1.5s-1.5,0.7-1.5,1.5s0.7,1.5,1.5,1.5S243,103.3,243,102.5z
	 M253,102.5c0-0.8-0.7-1.5-1.5-1.5s-1.5,0.7-1.5,1.5s0.7,1.5,1.5,1.5S253,103.3,253,102.5z M263,102.5c0-0.8-0.7-1.5-1.5-1.5
	s-1.5,0.7-1.5,1.5s0.7,1.5,1.5,1.5S263,103.3,263,102.5z M273,102.5c0-0.8-0.7-1.5-1.5-1.5s-1.5,0.7-1.5,1.5s0.7,1.5,1.5,1.5
	S273,103.3,273,102.5z M283,102.5c0-0.8-0.7-1.5-1.5-1.5s-1.5,0.7-1.5,1.5s0.7,1.5,1.5,1.5S283,103.3,283,102.5z M293,102.5
	c0-0.8-0.7-1.5-1.5-1.5s-1.5,0.7-1.5,1.5s0.7,1.5,1.5,1.5S293,103.3,293,102.5z M303,102.5c0-0.8-0.7-1.5-1.5-1.5s-1.5,0.7-1.5,1.5
	s0.7,1.5,1.5,1.5S303,103.3,303,102.5z M313,102.5c0-0.8-0.7-1.5-1.5-1.5s-1.5,0.7-1.5,1.5s0.7,1.5,1.5,1.5S313,103.3,313,102.5z
	 M323,102.5c0-0.8-0.7-1.5-1.5-1.5s-1.5,0.7-1.5,1.5s0.7,1.5,1.5,1.5S323,103.3,323,102.5z M333,102.5c0-0.8-0.7-1.5-1.5-1.5
	s-1.5,0.7-1.5,1.5s0.7,1.5,1.5,1.5S333,103.3,333,102.5z M343,102.5c0-0.8-0.7-1.5-1.5-1.5s-1.5,0.7-1.5,1.5s0.7,1.5,1.5,1.5
	S343,103.3,343,102.5z M353,102.5c0-0.8-0.7-1.5-1.5-1.5s-1.5,0.7-1.5,1.5s0.7,1.5,1.5,1.5S353,103.3,353,102.5z M243,112.5
	c0-0.8-0.7-1.5-1.5-1.5s-1.5,0.7-1.5,1.5s0.7,1.5,1.5,1.5S243,113.3,243,112.5z M253,112.5c0-0.8-0.7-1.5-1.5-1.5s-1.5,0.7-1.5,1.5
	s0.7,1.5,1.5,1.5S253,113.3,253,112.5z M263,112.5c0-0.8-0.7-1.5-1.5-1.5s-1.5,0.7-1.5,1.5s0.7,1.5,1.5,1.5S263,113.3,263,112.5z
	 M273,112.5c0-0.8-0.7-1.5-1.5-1.5s-1.5,0.7-1.5,1.5s0.7,1.5,1.5,1.5S273,113.3,273,112.5z M283,112.5c0-0.8-0.7-1.5-1.5-1.5
	s-1.5,0.7-1.5,1.5s0.7,1.5,1.5,1.5S283,113.3,283,112.5z M293,112.5c0-0.8-0.7-1.5-1.5-1.5s-1.5,0.7-1.5,1.5s0.7,1.5,1.5,1.5
	S293,113.3,293,112.5z M303,112.5c0-0.8-0.7-1.5-1.5-1.5s-1.5,0.7-1.5,1.5s0.7,1.5,1.5,1.5S303,113.3,303,112.5z M313,112.5
	c0-0.8-0.7-1.5-1.5-1.5s-1.5,0.7-1.5,1.5s0.7,1.5,1.5,1.5S313,113.3,313,112.5z M323,112.5c0-0.8-0.7-1.5-1.5-1.5s-1.5,0.7-1.5,1.5
	s0.7,1.5,1.5,1.5S323,113.3,323,112.5z M333,112.5c0-0.8-0.7-1.5-1.5-1.5s-1.5,0.7-1.5,1.5s0.7,1.5,1.5,1.5S333,113.3,333,112.5z
	 M343,112.5c0-0.8-0.7-1.5-1.5-1.5s-1.5,0.7-1.5,1.5s0.7,1.5,1.5,1.5S343,113.3,343,112.5z M353,112.5c0-0.8-0.7-1.5-1.5-1.5
	s-1.5,0.7-1.5,1.5s0.7,1.5,1.5,1.5S353,113.3,353,112.5z M243,122.5c0-0.8-0.7-1.5-1.5-1.5s-1.5,0.7-1.5,1.5s0.7,1.5,1.5,1.5
	S243,123.3,243,122.5z M253,122.5c0-0.8-0.7-1.5-1.5-1.5s-1.5,0.7-1.5,1.5s0.7,1.5,1.5,1.5S253,123.3,253,122.5z M263,122.5
	c0-0.8-0.7-1.5-1.5-1.5s-1.5,0.7-1.5,1.5s0.7,1.5,1.5,1.5S263,123.3,263,122.5z M273,122.5c0-0.8-0.7-1.5-1.5-1.5s-1.5,0.7-1.5,1.5
	s0.7,1.5,1.5,1.5S273,123.3,273,122.5z M283,122.5c0-0.8-0.7-1.5-1.5-1.5s-1.5,0.7-1.5,1.5s0.7,1.5,1.5,1.5S283,123.3,283,122.5z
	 M293,122.5c0-0.8-0.7-1.5-1.5-1.5s-1.5,0.7-1.5,1.5s0.7,1.5,1.5,1.5S293,123.3,293,122.5z M303,122.5c0-0.8-0.7-1.5-1.5-1.5
	s-1.5,0.7-1.5,1.5s0.7,1.5,1.5,1.5S303,123.3,303,122.5z M313,122.5c0-0.8-0.7-1.5-1.5-1.5s-1.5,0.7-1.5,1.5s0.7,1.5,1.5,1.5
	S313,123.3,313,122.5z M323,122.5c0-0.8-0.7-1.5-1.5-1.5s-1.5,0.7-1.5,1.5s0.7,1.5,1.5,1.5S323,123.3,323,122.5z M333,122.5
	c0-0.8-0.7-1.5-1.5-1.5s-1.5,0.7-1.5,1.5s0.7,1.5,1.5,1.5S333,123.3,333,122.5z M343,122.5c0-0.8-0.7-1.5-1.5-1.5s-1.5,0.7-1.5,1.5
	s0.7,1.5,1.5,1.5S343,123.3,343,122.5z M353,122.5c0-0.8-0.7-1.5-1.5-1.5s-1.5,0.7-1.5,1.5s0.7,1.5,1.5,1.5S353,123.3,353,122.5z
	 M243,132.5c0-0.8-0.7-1.5-1.5-1.5s-1.5,0.7-1.5,1.5s0.7,1.5,1.5,1.5S243,133.3,243,132.5z M253,132.5c0-0.8-0.7-1.5-1.5-1.5
	s-1.5,0.7-1.5,1.5s0.7,1.5,1.5,1.5S253,133.3,253,132.5z M263,132.5c0-0.8-0.7-1.5-1.5-1.5s-1.5,0.7-1.5,1.5s0.7,1.5,1.5,1.5
	S263,133.3,263,132.5z M273,132.5c0-0.8-0.7-1.5-1.5-1.5s-1.5,0.7-1.5,1.5s0.7,1.5,1.5,1.5S273,133.3,273,132.5z M283,132.5
	c0-0.8-0.7-1.5-1.5-1.5s-1.5,0.7-1.5,1.5s0.7,1.5,1.5,1.5S283,133.3,283,132.5z M293,132.5c0-0.8-0.7-1.5-1.5-1.5s-1.5,0.7-1.5,1.5
	s0.7,1.5,1.5,1.5S293,133.3,293,132.5z M303,132.5c0-0.8-0.7-1.5-1.5-1.5s-1.5,0.7-1.5,1.5s0.7,1.5,1.5,1.5S303,133.3,303,132.5z
	 M313,132.5c0-0.8-0.7-1.5-1.5-1.5s-1.5,0.7-1.5,1.5s0.7,1.5,1.5,1.5S313,133.3,313,132.5z M323,132.5c0-0.8-0.7-1.5-1.5-1.5
	s-1.5,0.7-1.5,1.5s0.7,1.5,1.5,1.5S323,133.3,323,132.5z M333,132.5c0-0.8-0.7-1.5-1.5-1.5s-1.5,0.7-1.5,1.5s0.7,1.5,1.5,1.5
	S333,133.3,333,132.5z M343,132.5c0-0.8-0.7-1.5-1.5-1.5s-1.5,0.7-1.5,1.5s0.7,1.5,1.5,1.5S343,133.3,343,132.5z M353,132.5
	c0-0.8-0.7-1.5-1.5-1.5s-1.5,0.7-1.5,1.5s0.7,1.5,1.5,1.5S353,133.3,353,132.5z M243,142.5c0-0.8-0.7-1.5-1.5-1.5s-1.5,0.7-1.5,1.5
	s0.7,1.5,1.5,1.5S243,143.3,243,142.5z M253,142.5c0-0.8-0.7-1.5-1.5-1.5s-1.5,0.7-1.5,1.5s0.7,1.5,1.5,1.5S253,143.3,253,142.5z
	 M263,142.5c0-0.8-0.7-1.5-1.5-1.5s-1.5,0.7-1.5,1.5s0.7,1.5,1.5,1.5S263,143.3,263,142.5z M273,142.5c0-0.8-0.7-1.5-1.5-1.5
	s-1.5,0.7-1.5,1.5s0.7,1.5,1.5,1.5S273,143.3,273,142.5z M283,142.5c0-0.8-0.7-1.5-1.5-1.5s-1.5,0.7-1.5,1.5s0.7,1.5,1.5,1.5
	S283,143.3,283,142.5z M293,142.5c0-0.8-0.7-1.5-1.5-1.5s-1.5,0.7-1.5,1.5s0.7,1.5,1.5,1.5S293,143.3,293,142.5z M303,142.5
	c0-0.8-0.7-1.5-1.5-1.5s-1.5,0.7-1.5,1.5s0.7,1.5,1.5,1.5S303,143.3,303,142.5z M313,142.5c0-0.8-0.7-1.5-1.5-1.5s-1.5,0.7-1.5,1.5
	s0.7,1.5,1.5,1.5S313,143.3,313,142.5z M323,142.5c0-0.8-0.7-1.5-1.5-1.5s-1.5,0.7-1.5,1.5s0.7,1.5,1.5,1.5S323,143.3,323,142.5z
	 M333,142.5c0-0.8-0.7-1.5-1.5-1.5s-1.5,0.7-1.5,1.5s0.7,1.5,1.5,1.5S333,143.3,333,142.5z M343,142.5c0-0.8-0.7-1.5-1.5-1.5
	s-1.5,0.7-1.5,1.5s0.7,1.5,1.5,1.5S343,143.3,343,142.5z M353,142.5c0-0.8-0.7-1.5-1.5-1.5s-1.5,0.7-1.5,1.5s0.7,1.5,1.5,1.5
	S353,143.3,353,142.5z M243,152.5c0-0.8-0.7-1.5-1.5-1.5s-1.5,0.7-1.5,1.5s0.7,1.5,1.5,1.5S243,153.3,243,152.5z M253,152.5
	c0-0.8-0.7-1.5-1.5-1.5s-1.5,0.7-1.5,1.5s0.7,1.5,1.5,1.5S253,153.3,253,152.5z M263,152.5c0-0.8-0.7-1.5-1.5-1.5s-1.5,0.7-1.5,1.5
	s0.7,1.5,1.5,1.5S263,153.3,263,152.5z M273,152.5c0-0.8-0.7-1.5-1.5-1.5s-1.5,0.7-1.5,1.5s0.7,1.5,1.5,1.5S273,153.3,273,152.5z
	 M283,152.5c0-0.8-0.7-1.5-1.5-1.5s-1.5,0.7-1.5,1.5s0.7,1.5,1.5,1.5S283,153.3,283,152.5z M293,152.5c0-0.8-0.7-1.5-1.5-1.5
	s-1.5,0.7-1.5,1.5s0.7,1.5,1.5,1.5S293,153.3,293,152.5z M303,152.5c0-0.8-0.7-1.5-1.5-1.5s-1.5,0.7-1.5,1.5s0.7,1.5,1.5,1.5
	S303,153.3,303,152.5z M313,152.5c0-0.8-0.7-1.5-1.5-1.5s-1.5,0.7-1.5,1.5s0.7,1.5,1.5,1.5S313,153.3,313,152.5z M323,152.5
	c0-0.8-0.7-1.5-1.5-1.5s-1.5,0.7-1.5,1.5s0.7,1.5,1.5,1.5S323,153.3,323,152.5z M333,152.5c0-0.8-0.7-1.5-1.5-1.5s-1.5,0.7-1.5,1.5
	s0.7,1.5,1.5,1.5S333,153.3,333,152.5z M343,152.5c0-0.8-0.7-1.5-1.5-1.5s-1.5,0.7-1.5,1.5s0.7,1.5,1.5,1.5S343,153.3,343,152.5z
	 M353,152.5c0-0.8-0.7-1.5-1.5-1.5s-1.5,0.7-1.5,1.5s0.7,1.5,1.5,1.5S353,153.3,353,152.5z M363,82.5c0-0.8-0.7-1.5-1.5-1.5
	s-1.5,0.7-1.5,1.5s0.7,1.5,1.5,1.5S363,83.3,363,82.5z M373,82.5c0-0.8-0.7-1.5-1.5-1.5s-1.5,0.7-1.5,1.5s0.7,1.5,1.5,1.5
	S373,83.3,373,82.5z M383,82.5c0-0.8-0.7-1.5-1.5-1.5s-1.5,0.7-1.5,1.5s0.7,1.5,1.5,1.5S383,83.3,383,82.5z M393,82.5
	c0-0.8-0.7-1.5-1.5-1.5s-1.5,0.7-1.5,1.5s0.7,1.5,1.5,1.5S393,83.3,393,82.5z M403,82.5c0-0.8-0.7-1.5-1.5-1.5s-1.5,0.7-1.5,1.5
	s0.7,1.5,1.5,1.5S403,83.3,403,82.5z M413,82.5c0-0.8-0.7-1.5-1.5-1.5s-1.5,0.7-1.5,1.5s0.7,1.5,1.5,1.5S413,83.3,413,82.5z
	 M423,82.5c0-0.8-0.7-1.5-1.5-1.5s-1.5,0.7-1.5,1.5s0.7,1.5,1.5,1.5S423,83.3,423,82.5z M433,82.5c0-0.8-0.7-1.5-1.5-1.5
	s-1.5,0.7-1.5,1.5s0.7,1.5,1.5,1.5S433,83.3,433,82.5z M443,82.5c0-0.8-0.7-1.5-1.5-1.5s-1.5,0.7-1.5,1.5s0.7,1.5,1.5,1.5
	S443,83.3,443,82.5z M453,82.5c0-0.8-0.7-1.5-1.5-1.5s-1.5,0.7-1.5,1.5s0.7,1.5,1.5,1.5S453,83.3,453,82.5z M463,82.5
	c0-0.8-0.7-1.5-1.5-1.5s-1.5,0.7-1.5,1.5s0.7,1.5,1.5,1.5S463,83.3,463,82.5z M473,82.5c0-0.8-0.7-1.5-1.5-1.5s-1.5,0.7-1.5,1.5
	s0.7,1.5,1.5,1.5S473,83.3,473,82.5z M363,92.5c0-0.8-0.7-1.5-1.5-1.5s-1.5,0.7-1.5,1.5s0.7,1.5,1.5,1.5S363,93.3,363,92.5z
	 M373,92.5c0-0.8-0.7-1.5-1.5-1.5s-1.5,0.7-1.5,1.5s0.7,1.5,1.5,1.5S373,93.3,373,92.5z M383,92.5c0-0.8-0.7-1.5-1.5-1.5
	s-1.5,0.7-1.5,1.5s0.7,1.5,1.5,1.5S383,93.3,383,92.5z M393,92.5c0-0.8-0.7-1.5-1.5-1.5s-1.5,0.7-1.5,1.5s0.7,1.5,1.5,1.5
	S393,93.3,393,92.5z M403,92.5c0-0.8-0.7-1.5-1.5-1.5s-1.5,0.7-1.5,1.5s0.7,1.5,1.5,1.5S403,93.3,403,92.5z M413,92.5
	c0-0.8-0.7-1.5-1.5-1.5s-1.5,0.7-1.5,1.5s0.7,1.5,1.5,1.5S413,93.3,413,92.5z M423,92.5c0-0.8-0.7-1.5-1.5-1.5s-1.5,0.7-1.5,1.5
	s0.7,1.5,1.5,1.5S423,93.3,423,92.5z M433,92.5c0-0.8-0.7-1.5-1.5-1.5s-1.5,0.7-1.5,1.5s0.7,1.5,1.5,1.5S433,93.3,433,92.5z
	 M443,92.5c0-0.8-0.7-1.5-1.5-1.5s-1.5,0.7-1.5,1.5s0.7,1.5,1.5,1.5S443,93.3,443,92.5z M453,92.5c0-0.8-0.7-1.5-1.5-1.5
	s-1.5,0.7-1.5,1.5s0.7,1.5,1.5,1.5S453,93.3,453,92.5z M463,92.5c0-0.8-0.7-1.5-1.5-1.5s-1.5,0.7-1.5,1.5s0.7,1.5,1.5,1.5
	S463,93.3,463,92.5z M473,92.5c0-0.8-0.7-1.5-1.5-1.5s-1.5,0.7-1.5,1.5s0.7,1.5,1.5,1.5S473,93.3,473,92.5z M363,102.5
	c0-0.8-0.7-1.5-1.5-1.5s-1.5,0.7-1.5,1.5s0.7,1.5,1.5,1.5S363,103.3,363,102.5z M373,102.5c0-0.8-0.7-1.5-1.5-1.5s-1.5,0.7-1.5,1.5
	s0.7,1.5,1.5,1.5S373,103.3,373,102.5z M383,102.5c0-0.8-0.7-1.5-1.5-1.5s-1.5,0.7-1.5,1.5s0.7,1.5,1.5,1.5S383,103.3,383,102.5z
	 M393,102.5c0-0.8-0.7-1.5-1.5-1.5s-1.5,0.7-1.5,1.5s0.7,1.5,1.5,1.5S393,103.3,393,102.5z M403,102.5c0-0.8-0.7-1.5-1.5-1.5
	s-1.5,0.7-1.5,1.5s0.7,1.5,1.5,1.5S403,103.3,403,102.5z M413,102.5c0-0.8-0.7-1.5-1.5-1.5s-1.5,0.7-1.5,1.5s0.7,1.5,1.5,1.5
	S413,103.3,413,102.5z M423,102.5c0-0.8-0.7-1.5-1.5-1.5s-1.5,0.7-1.5,1.5s0.7,1.5,1.5,1.5S423,103.3,423,102.5z M433,102.5
	c0-0.8-0.7-1.5-1.5-1.5s-1.5,0.7-1.5,1.5s0.7,1.5,1.5,1.5S433,103.3,433,102.5z M443,102.5c0-0.8-0.7-1.5-1.5-1.5s-1.5,0.7-1.5,1.5
	s0.7,1.5,1.5,1.5S443,103.3,443,102.5z M453,102.5c0-0.8-0.7-1.5-1.5-1.5s-1.5,0.7-1.5,1.5s0.7,1.5,1.5,1.5S453,103.3,453,102.5z
	 M463,102.5c0-0.8-0.7-1.5-1.5-1.5s-1.5,0.7-1.5,1.5s0.7,1.5,1.5,1.5S463,103.3,463,102.5z M473,102.5c0-0.8-0.7-1.5-1.5-1.5
	s-1.5,0.7-1.5,1.5s0.7,1.5,1.5,1.5S473,103.3,473,102.5z M363,112.5c0-0.8-0.7-1.5-1.5-1.5s-1.5,0.7-1.5,1.5s0.7,1.5,1.5,1.5
	S363,113.3,363,112.5z M373,112.5c0-0.8-0.7-1.5-1.5-1.5s-1.5,0.7-1.5,1.5s0.7,1.5,1.5,1.5S373,113.3,373,112.5z M383,112.5
	c0-0.8-0.7-1.5-1.5-1.5s-1.5,0.7-1.5,1.5s0.7,1.5,1.5,1.5S383,113.3,383,112.5z M393,112.5c0-0.8-0.7-1.5-1.5-1.5s-1.5,0.7-1.5,1.5
	s0.7,1.5,1.5,1.5S393,113.3,393,112.5z M403,112.5c0-0.8-0.7-1.5-1.5-1.5s-1.5,0.7-1.5,1.5s0.7,1.5,1.5,1.5S403,113.3,403,112.5z
	 M413,112.5c0-0.8-0.7-1.5-1.5-1.5s-1.5,0.7-1.5,1.5s0.7,1.5,1.5,1.5S413,113.3,413,112.5z M423,112.5c0-0.8-0.7-1.5-1.5-1.5
	s-1.5,0.7-1.5,1.5s0.7,1.5,1.5,1.5S423,113.3,423,112.5z M433,112.5c0-0.8-0.7-1.5-1.5-1.5s-1.5,0.7-1.5,1.5s0.7,1.5,1.5,1.5
	S433,113.3,433,112.5z M443,112.5c0-0.8-0.7-1.5-1.5-1.5s-1.5,0.7-1.5,1.5s0.7,1.5,1.5,1.5S443,113.3,443,112.5z M453,112.5
	c0-0.8-0.7-1.5-1.5-1.5s-1.5,0.7-1.5,1.5s0.7,1.5,1.5,1.5S453,113.3,453,112.5z M463,112.5c0-0.8-0.7-1.5-1.5-1.5s-1.5,0.7-1.5,1.5
	s0.7,1.5,1.5,1.5S463,113.3,463,112.5z M473,112.5c0-0.8-0.7-1.5-1.5-1.5s-1.5,0.7-1.5,1.5s0.7,1.5,1.5,1.5S473,113.3,473,112.5z
	 M363,122.5c0-0.8-0.7-1.5-1.5-1.5s-1.5,0.7-1.5,1.5s0.7,1.5,1.5,1.5S363,123.3,363,122.5z M373,122.5c0-0.8-0.7-1.5-1.5-1.5
	s-1.5,0.7-1.5,1.5s0.7,1.5,1.5,1.5S373,123.3,373,122.5z M383,122.5c0-0.8-0.7-1.5-1.5-1.5s-1.5,0.7-1.5,1.5s0.7,1.5,1.5,1.5
	S383,123.3,383,122.5z M393,122.5c0-0.8-0.7-1.5-1.5-1.5s-1.5,0.7-1.5,1.5s0.7,1.5,1.5,1.5S393,123.3,393,122.5z M403,122.5
	c0-0.8-0.7-1.5-1.5-1.5s-1.5,0.7-1.5,1.5s0.7,1.5,1.5,1.5S403,123.3,403,122.5z M413,122.5c0-0.8-0.7-1.5-1.5-1.5s-1.5,0.7-1.5,1.5
	s0.7,1.5,1.5,1.5S413,123.3,413,122.5z M423,122.5c0-0.8-0.7-1.5-1.5-1.5s-1.5,0.7-1.5,1.5s0.7,1.5,1.5,1.5S423,123.3,423,122.5z
	 M433,122.5c0-0.8-0.7-1.5-1.5-1.5s-1.5,0.7-1.5,1.5s0.7,1.5,1.5,1.5S433,123.3,433,122.5z M443,122.5c0-0.8-0.7-1.5-1.5-1.5
	s-1.5,0.7-1.5,1.5s0.7,1.5,1.5,1.5S443,123.3,443,122.5z M453,122.5c0-0.8-0.7-1.5-1.5-1.5s-1.5,0.7-1.5,1.5s0.7,1.5,1.5,1.5
	S453,123.3,453,122.5z M463,122.5c0-0.8-0.7-1.5-1.5-1.5s-1.5,0.7-1.5,1.5s0.7,1.5,1.5,1.5S463,123.3,463,122.5z M473,122.5
	c0-0.8-0.7-1.5-1.5-1.5s-1.5,0.7-1.5,1.5s0.7,1.5,1.5,1.5S473,123.3,473,122.5z M363,132.5c0-0.8-0.7-1.5-1.5-1.5s-1.5,0.7-1.5,1.5
	s0.7,1.5,1.5,1.5S363,133.3,363,132.5z M373,132.5c0-0.8-0.7-1.5-1.5-1.5s-1.5,0.7-1.5,1.5s0.7,1.5,1.5,1.5S373,133.3,373,132.5z
	 M383,132.5c0-0.8-0.7-1.5-1.5-1.5s-1.5,0.7-1.5,1.5s0.7,1.5,1.5,1.5S383,133.3,383,132.5z M393,132.5c0-0.8-0.7-1.5-1.5-1.5
	s-1.5,0.7-1.5,1.5s0.7,1.5,1.5,1.5S393,133.3,393,132.5z M403,132.5c0-0.8-0.7-1.5-1.5-1.5s-1.5,0.7-1.5,1.5s0.7,1.5,1.5,1.5
	S403,133.3,403,132.5z M413,132.5c0-0.8-0.7-1.5-1.5-1.5s-1.5,0.7-1.5,1.5s0.7,1.5,1.5,1.5S413,133.3,413,132.5z M423,132.5
	c0-0.8-0.7-1.5-1.5-1.5s-1.5,0.7-1.5,1.5s0.7,1.5,1.5,1.5S423,133.3,423,132.5z M433,132.5c0-0.8-0.7-1.5-1.5-1.5s-1.5,0.7-1.5,1.5
	s0.7,1.5,1.5,1.5S433,133.3,433,132.5z M443,132.5c0-0.8-0.7-1.5-1.5-1.5s-1.5,0.7-1.5,1.5s0.7,1.5,1.5,1.5S443,133.3,443,132.5z
	 M453,132.5c0-0.8-0.7-1.5-1.5-1.5s-1.5,0.7-1.5,1.5s0.7,1.5,1.5,1.5S453,133.3,453,132.5z M463,132.5c0-0.8-0.7-1.5-1.5-1.5
	s-1.5,0.7-1.5,1.5s0.7,1.5,1.5,1.5S463,133.3,463,132.5z M473,132.5c0-0.8-0.7-1.5-1.5-1.5s-1.5,0.7-1.5,1.5s0.7,1.5,1.5,1.5
	S473,133.3,473,132.5z M363,142.5c0-0.8-0.7-1.5-1.5-1.5s-1.5,0.7-1.5,1.5s0.7,1.5,1.5,1.5S363,143.3,363,142.5z M373,142.5
	c0-0.8-0.7-1.5-1.5-1.5s-1.5,0.7-1.5,1.5s0.7,1.5,1.5,1.5S373,143.3,373,142.5z M383,142.5c0-0.8-0.7-1.5-1.5-1.5s-1.5,0.7-1.5,1.5
	s0.7,1.5,1.5,1.5S383,143.3,383,142.5z M393,142.5c0-0.8-0.7-1.5-1.5-1.5s-1.5,0.7-1.5,1.5s0.7,1.5,1.5,1.5S393,143.3,393,142.5z
	 M403,142.5c0-0.8-0.7-1.5-1.5-1.5s-1.5,0.7-1.5,1.5s0.7,1.5,1.5,1.5S403,143.3,403,142.5z M413,142.5c0-0.8-0.7-1.5-1.5-1.5
	s-1.5,0.7-1.5,1.5s0.7,1.5,1.5,1.5S413,143.3,413,142.5z M423,142.5c0-0.8-0.7-1.5-1.5-1.5s-1.5,0.7-1.5,1.5s0.7,1.5,1.5,1.5
	S423,143.3,423,142.5z M433,142.5c0-0.8-0.7-1.5-1.5-1.5s-1.5,0.7-1.5,1.5s0.7,1.5,1.5,1.5S433,143.3,433,142.5z M443,142.5
	c0-0.8-0.7-1.5-1.5-1.5s-1.5,0.7-1.5,1.5s0.7,1.5,1.5,1.5S443,143.3,443,142.5z M453,142.5c0-0.8-0.7-1.5-1.5-1.5s-1.5,0.7-1.5,1.5
	s0.7,1.5,1.5,1.5S453,143.3,453,142.5z M463,142.5c0-0.8-0.7-1.5-1.5-1.5s-1.5,0.7-1.5,1.5s0.7,1.5,1.5,1.5S463,143.3,463,142.5z
	 M473,142.5c0-0.8-0.7-1.5-1.5-1.5s-1.5,0.7-1.5,1.5s0.7,1.5,1.5,1.5S473,143.3,473,142.5z M363,152.5c0-0.8-0.7-1.5-1.5-1.5
	s-1.5,0.7-1.5,1.5s0.7,1.5,1.5,1.5S363,153.3,363,152.5z M373,152.5c0-0.8-0.7-1.5-1.5-1.5s-1.5,0.7-1.5,1.5s0.7,1.5,1.5,1.5
	S373,153.3,373,152.5z M383,152.5c0-0.8-0.7-1.5-1.5-1.5s-1.5,0.7-1.5,1.5s0.7,1.5,1.5,1.5S383,153.3,383,152.5z M393,152.5
	c0-0.8-0.7-1.5-1.5-1.5s-1.5,0.7-1.5,1.5s0.7,1.5,1.5,1.5S393,153.3,393,152.5z M403,152.5c0-0.8-0.7-1.5-1.5-1.5s-1.5,0.7-1.5,1.5
	s0.7,1.5,1.5,1.5S403,153.3,403,152.5z M413,152.5c0-0.8-0.7-1.5-1.5-1.5s-1.5,0.7-1.5,1.5s0.7,1.5,1.5,1.5S413,153.3,413,152.5z
	 M423,152.5c0-0.8-0.7-1.5-1.5-1.5s-1.5,0.7-1.5,1.5s0.7,1.5,1.5,1.5S423,153.3,423,152.5z M433,152.5c0-0.8-0.7-1.5-1.5-1.5
	s-1.5,0.7-1.5,1.5s0.7,1.5,1.5,1.5S433,153.3,433,152.5z M443,152.5c0-0.8-0.7-1.5-1.5-1.5s-1.5,0.7-1.5,1.5s0.7,1.5,1.5,1.5
	S443,153.3,443,152.5z M453,152.5c0-0.8-0.7-1.5-1.5-1.5s-1.5,0.7-1.5,1.5s0.7,1.5,1.5,1.5S453,153.3,453,152.5z M463,152.5
	c0-0.8-0.7-1.5-1.5-1.5s-1.5,0.7-1.5,1.5s0.7,1.5,1.5,1.5S463,153.3,463,152.5z M473,152.5c0-0.8-0.7-1.5-1.5-1.5s-1.5,0.7-1.5,1.5
	s0.7,1.5,1.5,1.5S473,153.3,473,152.5z"/>
</svg>
